<svg width="272" height="272" viewBox="0 0 272 272" fill="none" xmlns="http://www.w3.org/2000/svg">
<path d="M249.334 112.767V159.347C249.334 161.996 248.812 164.619 247.798 167.067C246.784 169.514 245.298 171.738 243.425 173.611C241.552 175.485 239.328 176.971 236.88 177.984C234.433 178.998 231.81 179.52 229.16 179.52H179.407V229.273C179.428 231.91 178.916 234.523 177.904 236.957C176.891 239.391 175.398 241.596 173.514 243.44C169.71 247.201 164.582 249.317 159.234 249.333H112.654C107.305 249.317 102.177 247.201 98.3737 243.44C94.6405 239.665 92.5264 234.583 92.4803 229.273V179.52H42.8403C37.49 179.52 32.3589 177.395 28.5756 173.611C24.7924 169.828 22.667 164.697 22.667 159.347V112.767C22.667 107.416 24.7924 102.285 28.5756 98.5021C32.3589 94.7188 37.49 92.5934 42.8403 92.5934H92.4803V42.8401C92.5105 38.8487 93.7109 34.9538 95.9329 31.6379C98.1549 28.3221 101.301 25.7309 104.981 24.1854C107.417 23.189 110.022 22.6733 112.654 22.6667H158.667C164.016 22.6832 169.144 24.7996 172.947 28.5601C174.824 30.4327 176.312 32.6589 177.323 35.11C178.335 37.5611 178.851 40.1885 178.84 42.8401V92.5934H228.594C233.943 92.6274 239.066 94.7467 242.874 98.4867C244.849 100.316 246.438 102.521 247.547 104.974C248.657 107.426 249.264 110.076 249.334 112.767Z" fill="#F24822"/>
</svg>
