<svg width="172" height="273" viewBox="0 0 172 273" fill="none" xmlns="http://www.w3.org/2000/svg">
<path d="M166 155.847C165.666 154.92 165.272 154.015 164.821 153.139L164.878 153.263C163.223 149.399 149.918 123.695 147.696 120.193L85.9182 0.988525L22.5649 123.117C20.4116 126.63 8.60222 149.41 6.97022 153.263L6.32422 154.691C2.12324 164.964 -0.0251979 175.96 0.000222977 187.059C0.000222977 209.849 9.05347 231.706 25.1683 247.82C41.2832 263.935 63.1397 272.989 85.9296 272.989C108.719 272.989 130.576 263.935 146.691 247.82C162.806 231.706 171.859 209.849 171.859 187.059V186.991L171.87 185.847C171.87 175.023 169.717 164.699 165.807 155.292L166 155.825V155.847ZM85.9636 250.537C74.9711 250.54 64.1675 247.679 54.6164 242.238C45.0653 236.796 37.096 228.961 31.493 219.504C25.89 210.046 22.8465 199.293 22.6621 188.302C22.4777 177.311 25.1589 166.462 30.4416 156.822L30.2716 157.151C29.4426 161.564 29.0252 166.045 29.0249 170.535V170.547C29.0369 190.67 37.0361 209.965 51.2652 224.194C65.4944 238.423 84.7898 246.423 104.913 246.435C106.194 246.435 107.565 246.435 108.834 246.367C101.593 249.158 93.8941 250.572 86.1336 250.537H85.8729H85.9636Z" fill="#F24822"/>
</svg>
