<svg width="272" height="272" viewBox="0 0 272 272" fill="none" xmlns="http://www.w3.org/2000/svg">
<path d="M30.0134 132.37C18.2409 111.826 15.8439 92.6584 24.2164 78.1829C35.4194 58.7519 63.5289 51.9774 99.0759 58.4374C101.116 58.7434 102.527 60.6984 102.178 62.7299C102.087 63.2152 101.898 63.6768 101.624 64.0871C101.349 64.4974 100.994 64.8477 100.58 65.117C100.166 65.3863 99.702 65.569 99.2156 65.6539C98.7292 65.7389 98.2306 65.7244 97.7499 65.6114C64.8974 59.6359 39.8394 65.6964 30.5489 81.8124C23.6894 93.6784 25.7209 110.236 36.3459 128.741C36.6107 129.159 36.7878 129.626 36.8665 130.115C36.9452 130.603 36.9239 131.103 36.8039 131.583C36.6839 132.063 36.4677 132.514 36.1683 132.908C35.869 133.302 35.4927 133.631 35.0624 133.875C34.6344 134.117 34.1618 134.271 33.673 134.326C33.1842 134.382 32.6892 134.338 32.2177 134.197C31.7463 134.057 31.3081 133.823 30.9293 133.509C30.5505 133.195 30.239 132.808 30.0134 132.37ZM199.087 63.5714C219.895 63.8349 234.855 70.3034 241.629 81.9909C250.928 98.0644 243.669 122.723 222.147 148.129C221.802 148.489 221.534 148.915 221.36 149.381C221.185 149.848 221.108 150.345 221.133 150.843C221.157 151.34 221.284 151.827 221.503 152.274C221.723 152.721 222.032 153.119 222.411 153.442C224.009 154.81 226.44 154.547 227.681 152.864C250.971 125.375 259.114 97.6989 247.911 78.3529C239.674 64.0984 222.326 56.5674 199.214 56.2614C198.717 56.229 198.218 56.2986 197.749 56.4661C197.279 56.6336 196.849 56.8953 196.484 57.2353C196.119 57.5753 195.828 57.9862 195.628 58.4429C195.428 58.8996 195.324 59.3924 195.321 59.8909C195.313 60.3872 195.406 60.88 195.596 61.3386C195.786 61.7971 196.068 62.2116 196.426 62.5562C196.783 62.9007 197.208 63.168 197.673 63.3412C198.138 63.5144 198.634 63.5899 199.129 63.5629L199.087 63.5714ZM178.1 236.274C177.271 235.777 176.279 235.629 175.341 235.861C174.403 236.094 173.595 236.689 173.094 237.515C162.511 255.136 149.498 264.698 136.127 264.698C117.529 264.698 99.7814 246.058 88.5359 214.625C88.2068 213.715 87.5298 212.974 86.6539 212.563C85.7779 212.153 84.7748 212.107 83.8652 212.436C82.9556 212.765 82.2139 213.442 81.8035 214.318C81.393 215.194 81.3473 216.197 81.6764 217.107C93.8059 251.064 113.73 272 136.127 272C152.422 272 167.518 260.89 179.333 241.272C179.83 240.443 179.979 239.451 179.746 238.513C179.514 237.575 178.919 236.767 178.092 236.266L178.1 236.274ZM261.46 206.881C261.417 221.093 245.386 229.279 233.835 221.051C206.031 237.43 152.864 229.109 102.841 200.2C81.5489 187.892 62.8659 173.102 48.4754 157.301C48.1352 156.946 47.8694 156.527 47.6938 156.068C47.5181 155.609 47.4362 155.119 47.4529 154.628C47.4695 154.137 47.5844 153.654 47.7906 153.208C47.9969 152.762 48.2905 152.362 48.6539 152.031C49.0176 151.705 49.4429 151.455 49.9048 151.296C50.3667 151.137 50.8557 151.072 51.3431 151.106C51.8304 151.139 52.3061 151.27 52.7421 151.49C53.1781 151.71 53.5655 152.015 53.8814 152.388C67.7364 167.62 85.7989 181.959 106.471 193.868C153.705 221.136 203.422 229.236 228.837 215.475C227.516 213.152 226.745 210.557 226.586 207.889C226.426 205.222 226.881 202.553 227.916 200.089C228.951 197.625 230.538 195.432 232.554 193.678C234.571 191.925 236.963 190.658 239.547 189.975C242.134 189.289 244.844 189.207 247.467 189.737C250.091 190.266 252.557 191.392 254.676 193.027C256.794 194.662 258.508 196.763 259.685 199.167C260.861 201.571 261.469 204.205 261.46 206.881ZM45.4239 206.881C45.4664 220.388 30.7699 228.794 19.1249 221.935C7.47994 215.118 7.70094 198.16 19.5244 191.649C16.8639 159.018 51.1359 115.328 102.935 85.3994C124.448 73.0064 146.854 64.1919 167.883 59.6784C172.397 59.0579 173.774 65.5264 169.43 66.8099C149.158 71.1449 127.457 79.6959 106.564 91.7319C57.8254 119.892 25.5934 160.488 26.6984 189.524C27.1404 189.482 27.5399 189.439 27.9819 189.439C37.6294 189.439 45.4239 197.276 45.4239 206.881ZM118.694 17.4419C119.493 -4.95558 152.779 -4.95558 153.578 17.4419C153.578 17.7054 153.535 17.9774 153.535 18.1984C182.444 33.1584 202.495 84.0734 202.495 142.91C202.495 167.127 199.129 190.323 192.797 210.468C192.261 212.457 190.187 213.656 188.19 213.035C186.192 212.415 185.138 210.247 185.844 208.301C191.913 188.87 195.185 166.379 195.185 142.91C195.185 87.4819 176.766 39.8479 151.623 25.4574C143.208 41.7009 118.651 35.7254 118.694 17.4419ZM133.475 130.551C126.658 132.056 122.315 138.745 123.777 145.562C125.239 152.379 131.971 156.723 138.788 155.261C155.261 151.716 149.897 127.007 133.475 130.551Z" fill="#F24822"/>
</svg>
