<svg width="272" height="272" viewBox="0 0 272 272" fill="none" xmlns="http://www.w3.org/2000/svg">
<path d="M31.3859 79.2412C31.3859 79.2412 28.9846 82.0249 27.3909 87.2099C25.7971 92.3949 26.4984 97.6862 26.4984 97.6862C26.4984 97.6862 34.5096 101.872 47.8971 102.467C58.9259 102.956 64.7909 100.98 73.1846 94.8387C81.5784 88.6974 95.8371 98.5786 102.276 101.575C108.715 104.571 166.026 126.714 166.026 126.714L207.718 129.306C207.718 129.306 209.312 124.716 207.718 113.751C206.125 102.786 196.158 94.0099 188.381 90.8224C180.603 87.6349 175.61 87.2311 175.61 87.2311L124.716 57.3111C124.716 57.3111 110.691 56.3337 96.3896 59.4999C85.6371 61.9012 62.8996 82.6412 49.7246 82.2374C36.5496 81.8337 31.3859 79.2412 31.3859 79.2412Z" fill="#D43330"/>
<path d="M124.61 44.2424L119.085 14.6836C119.085 14.6836 121.72 10.6249 127.012 9.73239C132.303 8.83989 136.277 11.4324 136.277 11.4324L141.27 45.6449H145.265L149.048 14.7261C149.048 14.7261 151.237 12.1336 157.93 13.1749C164.114 14.1524 165.134 16.9361 165.134 16.9361L161.734 48.7261L126.034 63.7924L110.288 61.9011L90.4404 32.8736C90.4404 32.8736 91.0354 27.9861 95.9229 25.2024C100.81 22.4186 104.295 22.9074 104.295 22.9074L123.25 50.5324L124.95 48.8324L124.61 44.2424Z" fill="#F44236"/>
<path d="M159.014 89.9088C159.014 89.9088 163.349 87.6138 168.491 87.125C173.634 86.6363 175.568 87.2313 175.568 87.2313C175.568 87.2313 183.005 77.4988 175.568 60.1588C168.13 42.8188 144.054 38.3138 130.9 42.6488C117.746 46.9838 101.426 57.3113 99.6415 78.2425C97.8565 99.1738 97.2402 109.948 97.2402 109.948L109.948 116.535L159.864 108.715L159.014 89.9088Z" fill="#F44236"/>
<path d="M144.861 57.7576C144.861 57.7576 148.75 59.5426 155.422 57.1626C163.391 54.3151 178.16 50.1288 183.834 47.4301C189.507 44.7313 194.31 39.6526 197.604 38.7601C200.897 37.8676 209.057 38.3138 212.946 46.3888C216.835 54.4638 209.865 61.4976 209.865 61.4976L173.357 70.4651L159.885 85.1276L156.591 99.7901V112.349L217.281 158.738C217.281 158.738 218.216 174.271 209.844 198.199C201.471 222.126 194.012 238 190.74 243.993C187.467 249.985 187.616 257.465 179.01 261.035C170.404 264.626 153.042 255.361 133.004 246.67C112.965 238 87.5286 221.85 77.6686 208.973C67.8086 196.095 59.4149 182.644 57.0349 162.605C54.6549 142.566 63.6224 121.911 73.4824 116.535C83.3636 111.159 106.696 112.349 106.696 112.349C106.696 112.349 108.056 109.65 117.385 106.675C126.714 103.7 133.004 102.786 133.004 102.786L130.602 86.9338L132.281 68.8501L144.861 57.7576Z" fill="#D43330"/>
<path d="M171.296 121.019C171.296 121.019 179.073 113.539 190.442 114.729C201.811 115.919 212.755 127.883 215.432 138.061C218.131 148.24 218.067 161.798 215.432 171.573C213.137 180.136 202.491 201.493 188.338 201.493C181.751 201.493 179.775 196.223 179.328 193.779C178.882 191.314 182.75 210.46 173.081 214.349C163.88 218.046 165.112 211.948 165.112 211.948L169.192 202.385C169.192 202.385 151.746 170.723 143.671 160.841C135.596 150.96 110.563 131.176 111.456 121.911C112.348 112.646 114.75 108.758 123.717 106.951C132.685 105.166 143.458 106.951 143.458 106.951L160.586 115.643L171.296 121.019Z" fill="#FE5F5F"/>
<path d="M108.162 138.869C108.162 138.869 102.977 148.049 95.9858 138.869C89.0158 129.689 83.2146 121.125 83.8096 101.384C84.4046 81.6426 85.4033 71.6763 82.8108 61.3063C80.2183 50.9363 79.3896 44.9863 79.3896 44.9863L72.4408 51.5526L65.8321 53.1251L61.4546 50.7451C61.4546 50.7451 57.6721 51.3401 59.0746 52.9338C60.4771 54.5276 65.6408 61.3276 67.8296 65.6838C70.7196 71.4638 73.6096 91.0138 67.5746 102.978C60.3071 117.406 57.8421 129.306 59.6058 141.483C60.9233 150.556 70.6983 162.223 70.6983 162.223L77.9658 167.408L94.3283 166.005L107.1 152.639L108.162 138.869Z" fill="#FF6A65"/>
<path d="M77.4558 34.0639C70.9746 33.1076 61.8158 37.7614 59.1383 43.9451C56.6308 49.6826 57.9271 55.8026 65.2583 54.6126C72.5896 53.4226 76.3083 49.5126 77.6683 48.3226C79.0283 47.1326 82.7896 61.2001 83.6608 69.5726C84.5533 77.9451 83.7883 97.2826 83.6608 104.125C83.4908 113.496 86.1683 138.168 94.7108 143.14C100.661 146.604 105.272 141.971 109.161 141.461L107.567 128.35L101.277 108.758C101.277 108.758 100.618 107.908 98.9821 103.764C97.3458 99.6201 97.2396 72.0589 94.2433 58.0339C92.3308 49.0876 85.9983 35.3389 77.4558 34.0639Z" fill="#FF8F8C"/>
<path d="M203.596 44.2849C202.385 46.1761 202.555 53.2524 202.555 53.2524C202.555 53.2524 183.855 58.8836 175.036 63.7711C166.217 68.6586 156.421 76.0749 153.573 87.8899C150.726 99.7049 154.615 107.844 154.615 107.844C154.615 107.844 148.813 105.166 144.053 103.509C139.973 102.085 136.021 101.256 136.021 101.256C136.021 101.256 135.681 91.9911 134.937 89.1436C134.193 86.2961 132.387 83.0024 132.387 79.4111C132.387 75.8199 134.533 69.3811 137.381 65.4499C139.931 61.9224 145.711 58.0336 145.711 58.0336C145.711 58.0336 145.413 57.6086 143.118 57.5236C138.38 57.3111 131.941 62.5174 128.966 70.2949C125.97 78.0724 127.33 89.8236 127.478 94.9661C127.585 98.4086 127.776 101.83 127.776 101.83C127.776 101.83 121.783 102.595 117.385 103.806C112.965 104.996 105.485 110.394 105.485 110.394C105.485 110.394 103.083 108.694 101.447 106.165C99.8534 103.7 98.0259 97.2611 98.0259 97.2611C98.0259 97.2611 99.0459 110.117 101.447 116.535C103.848 122.974 107.737 138.444 105.782 146.455C103.083 157.526 95.2209 163.561 85.9346 163.71C76.6484 163.859 69.8059 157.781 65.7896 150.556C62.7934 145.137 59.1596 132.026 59.1596 132.026C59.1596 132.026 57.7359 137.254 57.9484 141.822C58.1609 146.391 60.3496 157.292 69.4234 164.56C77.4559 170.999 83.6396 170.829 88.4209 170.531C97.2396 169.979 108.12 161.202 110.648 150.131C113.177 139.06 110.542 128.945 109.798 125.651C109.055 122.357 107.397 116.535 107.397 116.535C107.397 116.535 114.877 108.609 123.696 106.972C132.515 105.336 147.623 110.266 154.211 114.452C160.798 118.639 176.757 132.154 175.843 142.184C174.93 152.214 168.555 159.077 166.026 162.329C162.69 166.621 158.291 169.617 159.29 171.742C160.713 174.781 165.133 171.445 168.406 168.895C171.7 166.345 176.035 160.82 178.138 157.377C180.242 153.935 182.027 148.155 182.027 148.155C182.027 148.155 187.403 152.83 189.21 160.862C190.995 168.895 188.317 179.52 191.76 178.925C195.202 178.33 196.371 168.597 195.648 159.63C194.926 150.832 189.507 144.946 186.532 141.886C183.557 138.826 182.048 136 182.048 136C182.048 136 176.587 122.102 169.872 116.535C161.202 109.352 159.205 93.2236 163.348 85.8711C168.746 76.2874 176.332 70.9961 185.045 69.1261C197.306 66.4911 203.341 66.8736 208.951 66.3424C213.86 65.8749 216.176 60.3074 215.432 54.1661C214.688 48.0249 211.841 43.5199 208.632 42.1174C206.04 40.9699 204.34 43.1374 203.596 44.2849Z" fill="#A62714"/>
<path d="M83.5548 168.598C83.5548 168.598 88.1236 182.814 88.1236 188.934C88.1236 195.054 87.5923 201.578 83.5548 204.935C79.5386 208.271 88.7186 208.675 91.5023 203.851C95.1786 197.455 94.1161 192.971 94.1161 192.971L98.4086 197.795C98.4086 197.795 102.871 210.333 109.182 217.791C116.067 225.909 121.359 227.418 129.221 227.418C137.466 227.418 138.337 223.784 135.001 223.529C131.452 223.274 124.397 223.146 119.446 220.001C114.516 216.856 112.115 213.308 108.864 207.974C107.397 205.573 104.677 198.9 104.677 198.9C104.677 198.9 111.435 201.896 113.942 198.9C116.089 196.35 106.866 194.841 104.274 193.418C99.8961 191.016 97.4948 187.128 95.4548 183.26C93.5848 179.69 89.9298 168.576 89.9298 168.576H83.5548V168.598ZM173.57 159.014C173.57 159.014 174.059 172.168 173.272 180.859C172.465 189.529 170.786 198.008 167.28 203.596C164.921 207.379 160.714 210.779 159.609 213.074C158.419 215.496 160.905 217.048 163.497 215.56C166.09 214.073 170.574 209.674 172.677 205.296C173.782 203.001 176.375 196.626 176.375 196.626C176.375 196.626 179.074 207.103 180.752 210.099C182.452 213.095 185.045 219.279 187.722 218.068C190.4 216.856 187.489 212.054 186.724 209.993C185.767 207.443 183.536 201.408 182.346 196.329C181.156 191.25 180.434 173.91 180.434 169.32C180.434 164.73 179.839 154.339 178.946 150.556C178.054 146.774 173.57 159.014 173.57 159.014Z" fill="#A62714"/>
<path d="M62.7086 48.7261C63.8986 51.2549 67.9573 50.5324 72.9086 46.9199C78.1148 43.1161 79.0286 39.3974 76.5636 37.6761C74.2473 36.0399 69.8273 37.5061 66.8098 39.8224C63.4311 42.4149 61.3061 45.6874 62.7086 48.7261Z" fill="#F44236"/>
</svg>
