<svg width="272" height="272" viewBox="0 0 272 272" fill="none" xmlns="http://www.w3.org/2000/svg">
<path d="M183.6 39.6667C172.267 28.3334 157.533 22.6667 143.933 22.6667C130.333 22.6667 114.467 28.3334 104.267 39.6667L38.5332 103.133C15.8665 125.8 15.8665 160.933 38.5332 183.6C61.1999 206.267 96.3332 206.267 119 183.6L183.6 119C205.133 97.4668 205.133 61.2001 183.6 39.6667ZM167.733 103.133L136 134.867L95.1999 95.2001L45.3332 145.067C45.3332 136 47.5999 125.8 55.5332 119L120.133 54.4001C125.8 48.7334 134.867 45.3334 142.8 45.3334C150.733 45.3334 159.8 48.7334 166.6 54.4001C180.2 69.1334 180.2 89.5334 167.733 103.133ZM222.133 80.4668C222.133 89.5334 219.867 97.4668 217.6 106.533C228.933 120.133 228.933 140.533 216.467 153L184.733 184.733L167.733 167.733L136 199.467C121.267 214.2 100.867 222.133 81.5999 222.133C83.8665 225.533 86.1332 228.933 89.5332 232.333C112.2 255 147.333 255 170 232.333L234.6 167.733C257.267 145.067 257.267 109.933 234.6 87.2667C228.933 85.0001 225.533 82.7334 222.133 80.4668Z" fill="#F24822"/>
</svg>
