<svg width="20" height="20" viewBox="0 0 20 20" fill="none" xmlns="http://www.w3.org/2000/svg">
<path d="M11.6668 5.83333H16.6668M14.1668 3.33333V8.33333M4.16683 3.33333H7.50016C7.9604 3.33333 8.3335 3.70642 8.3335 4.16666V7.49999C8.3335 7.96023 7.9604 8.33333 7.50016 8.33333H4.16683C3.70659 8.33333 3.3335 7.96023 3.3335 7.49999V4.16666C3.3335 3.70642 3.70659 3.33333 4.16683 3.33333ZM4.16683 11.6667H7.50016C7.9604 11.6667 8.3335 12.0398 8.3335 12.5V15.8333C8.3335 16.2936 7.9604 16.6667 7.50016 16.6667H4.16683C3.70659 16.6667 3.3335 16.2936 3.3335 15.8333V12.5C3.3335 12.0398 3.70659 11.6667 4.16683 11.6667ZM12.5002 11.6667H15.8335C16.2937 11.6667 16.6668 12.0398 16.6668 12.5V15.8333C16.6668 16.2936 16.2937 16.6667 15.8335 16.6667H12.5002C12.0399 16.6667 11.6668 16.2936 11.6668 15.8333V12.5C11.6668 12.0398 12.0399 11.6667 12.5002 11.6667Z" stroke="white" stroke-width="1.5" stroke-linecap="round" stroke-linejoin="round"/>
</svg>
