<svg width="19" height="19" viewBox="0 0 19 19" fill="none" xmlns="http://www.w3.org/2000/svg">
<path d="M8.3125 3.5625H10.6875C10.6875 3.24756 10.5624 2.94551 10.3397 2.72281C10.117 2.50011 9.81494 2.375 9.5 2.375C9.18506 2.375 8.88301 2.50011 8.66031 2.72281C8.43761 2.94551 8.3125 3.24756 8.3125 3.5625ZM7.125 3.5625C7.125 2.93261 7.37522 2.32852 7.82062 1.88312C8.26602 1.43772 8.87011 1.1875 9.5 1.1875C10.1299 1.1875 10.734 1.43772 11.1794 1.88312C11.6248 2.32852 11.875 2.93261 11.875 3.5625H16.625C16.7825 3.5625 16.9335 3.62506 17.0448 3.73641C17.1562 3.84776 17.2188 3.99878 17.2188 4.15625C17.2188 4.31372 17.1562 4.46474 17.0448 4.57609C16.9335 4.68744 16.7825 4.75 16.625 4.75H15.9552L14.5243 15.2451C14.4273 15.9564 14.0758 16.6083 13.535 17.0804C12.9942 17.5524 12.3007 17.8125 11.5829 17.8125H7.41712C6.6993 17.8125 6.00579 17.5524 5.46499 17.0804C4.9242 16.6083 4.57274 15.9564 4.47569 15.2451L3.04475 4.75H2.375C2.21753 4.75 2.06651 4.68744 1.95516 4.57609C1.84381 4.46474 1.78125 4.31372 1.78125 4.15625C1.78125 3.99878 1.84381 3.84776 1.95516 3.73641C2.06651 3.62506 2.21753 3.5625 2.375 3.5625H7.125ZM8.3125 7.71875C8.3125 7.56128 8.24994 7.41025 8.13859 7.29891C8.02725 7.18756 7.87622 7.125 7.71875 7.125C7.56128 7.125 7.41025 7.18756 7.29891 7.29891C7.18756 7.41025 7.125 7.56128 7.125 7.71875V13.6562C7.125 13.8137 7.18756 13.9647 7.29891 14.0761C7.41025 14.1874 7.56128 14.25 7.71875 14.25C7.87622 14.25 8.02725 14.1874 8.13859 14.0761C8.24994 13.9647 8.3125 13.8137 8.3125 13.6562V7.71875ZM11.2812 7.125C11.4387 7.125 11.5897 7.18756 11.7011 7.29891C11.8124 7.41025 11.875 7.56128 11.875 7.71875V13.6562C11.875 13.8137 11.8124 13.9647 11.7011 14.0761C11.5897 14.1874 11.4387 14.25 11.2812 14.25C11.1238 14.25 10.9728 14.1874 10.8614 14.0761C10.7501 13.9647 10.6875 13.8137 10.6875 13.6562V7.71875C10.6875 7.56128 10.7501 7.41025 10.8614 7.29891C10.9728 7.18756 11.1238 7.125 11.2812 7.125ZM5.6525 15.0848C5.71078 15.5115 5.92164 15.9026 6.24606 16.1857C6.57049 16.4689 6.98651 16.6249 7.41712 16.625H11.5829C12.0137 16.6252 12.43 16.4693 12.7547 16.1861C13.0793 15.9029 13.2904 15.5117 13.3487 15.0848L14.7571 4.75H4.24294L5.6525 15.0848Z" fill="#FF0000"/>
</svg>
