<svg width="327" height="327" viewBox="0 0 327 327" fill="none" xmlns="http://www.w3.org/2000/svg">
<path d="M327 250.09H0V250.253H327V250.09Z" fill="#EBEBEB"/>
<path d="M55.9693 256.316H34.3088V256.479H55.9693V256.316Z" fill="#EBEBEB"/>
<path d="M139.74 254.543H111.926V254.707H139.74V254.543Z" fill="#EBEBEB"/>
<path d="M73.6797 258.611H61.1294V258.775H73.6797V258.611Z" fill="#EBEBEB"/>
<path d="M294.235 261.292H284.274V261.456H294.235V261.292Z" fill="#EBEBEB"/>
<path d="M278.447 261.292H256.021V261.456H278.447V261.292Z" fill="#EBEBEB"/>
<path d="M217.017 256.584H201.432V256.747H217.017V256.584Z" fill="#EBEBEB"/>
<path d="M154.998 220.921H28.7237C27.7333 220.921 26.7834 220.528 26.0831 219.827C25.3828 219.127 24.9893 218.177 24.9893 217.187V39.6716C24.998 38.6869 25.3952 37.7454 26.0946 37.0521C26.794 36.3589 27.7389 35.9699 28.7237 35.97H154.998C155.988 35.97 156.938 36.3634 157.639 37.0637C158.339 37.7641 158.732 38.7139 158.732 39.7043V217.187C158.732 218.177 158.339 219.127 157.639 219.827C156.938 220.528 155.988 220.921 154.998 220.921ZM28.7237 36.1008C27.7772 36.1025 26.8699 36.4793 26.2006 37.1486C25.5313 37.8178 25.1546 38.7251 25.1528 39.6716V217.187C25.1546 218.133 25.5313 219.041 26.2006 219.71C26.8699 220.379 27.7772 220.756 28.7237 220.758H154.998C155.945 220.756 156.852 220.379 157.521 219.71C158.19 219.041 158.567 218.133 158.569 217.187V39.6716C158.567 38.7251 158.19 37.8178 157.521 37.1486C156.852 36.4793 155.945 36.1025 154.998 36.1008H28.7237Z" fill="#EBEBEB"/>
<path d="M296.465 220.921H170.177C169.187 220.919 168.239 220.526 167.539 219.826C166.839 219.126 166.445 218.177 166.443 217.187V39.6716C166.453 38.6874 166.851 37.7469 167.55 37.054C168.249 36.3611 169.193 35.9716 170.177 35.97H296.465C297.447 35.9734 298.389 36.3638 299.085 37.0567C299.782 37.7496 300.177 38.6891 300.186 39.6716V217.187C300.186 218.175 299.794 219.123 299.097 219.823C298.399 220.523 297.453 220.918 296.465 220.921ZM170.177 36.1008C169.231 36.1025 168.324 36.4793 167.654 37.1486C166.985 37.8178 166.608 38.7251 166.606 39.6716V217.187C166.608 218.133 166.985 219.041 167.654 219.71C168.324 220.379 169.231 220.756 170.177 220.758H296.465C297.411 220.756 298.318 220.379 298.988 219.71C299.657 219.041 300.034 218.133 300.035 217.187V39.6716C300.034 38.7251 299.657 37.8178 298.988 37.1486C298.318 36.4793 297.411 36.1025 296.465 36.1008H170.177Z" fill="#EBEBEB"/>
<path d="M201.105 128.426H271.652V57.6894L201.105 57.6894V128.426Z" fill="#F0F0F0"/>
<path d="M201.105 57.6958H199.888V128.432H201.105V57.6958Z" fill="#E0E0E0"/>
<path d="M207.338 123.959L265.426 123.959V62.1562L207.338 62.1562V123.959Z" fill="#FAFAFA"/>
<path d="M230.208 110.526H248.605C252.594 110.526 255.263 107.295 254.563 103.332L250.986 82.8422C250.588 80.8596 249.532 79.0698 247.988 77.7637C246.445 76.4576 244.505 75.7121 242.484 75.6482H224.132C220.143 75.6482 217.475 78.879 218.174 82.8422L221.752 103.332C222.146 105.308 223.196 107.093 224.73 108.398C226.265 109.703 228.195 110.453 230.208 110.526Z" fill="#F0F0F0"/>
<path d="M68.6504 149.91H52.9544V246.735H68.6504V149.91Z" fill="#F0F0F0"/>
<path d="M137.523 246.741H54.5567V250.083H137.523V246.741Z" fill="#F0F0F0"/>
<path d="M68.6504 246.741H138.903V149.917H68.6504L68.6504 246.741Z" fill="#F5F5F5"/>
<path d="M71.4757 217.618H136.078V200.327H71.4757V217.618Z" fill="#F0F0F0"/>
<path d="M71.4757 240.247H136.078V222.955H71.4757V240.247Z" fill="#F0F0F0"/>
<path d="M128.433 199.267H79.1209C78.6947 199.267 78.3492 199.613 78.3492 200.039V200.87C78.3492 201.296 78.6947 201.641 79.1209 201.641H128.433C128.859 201.641 129.204 201.296 129.204 200.87V200.039C129.204 199.613 128.859 199.267 128.433 199.267Z" fill="#F5F5F5"/>
<path d="M128.433 221.902H79.1209C78.6947 221.902 78.3492 222.248 78.3492 222.674V223.504C78.3492 223.931 78.6947 224.276 79.1209 224.276H128.433C128.859 224.276 129.204 223.931 129.204 223.504V222.674C129.204 222.248 128.859 221.902 128.433 221.902Z" fill="#F5F5F5"/>
<path d="M71.4757 172.538H136.078V155.247H71.4757V172.538Z" fill="#F0F0F0"/>
<path d="M71.4757 194.997H136.078V177.705H71.4757V194.997Z" fill="#F0F0F0"/>
<path d="M128.433 154.194H79.1209C78.6947 154.194 78.3492 154.539 78.3492 154.965V155.796C78.3492 156.222 78.6947 156.568 79.1209 156.568H128.433C128.859 156.568 129.204 156.222 129.204 155.796V154.965C129.204 154.539 128.859 154.194 128.433 154.194Z" fill="#F5F5F5"/>
<path d="M128.433 176.639H79.1209C78.6947 176.639 78.3492 176.984 78.3492 177.411V178.241C78.3492 178.667 78.6947 179.013 79.1209 179.013H128.433C128.859 179.013 129.204 178.667 129.204 178.241V177.411C129.204 176.984 128.859 176.639 128.433 176.639Z" fill="#F5F5F5"/>
<path d="M136.359 52.3591H48.2587V129.701H136.359V52.3591Z" fill="#E6E6E6"/>
<path d="M145.803 49.3508H42.5558C42.441 49.3508 42.3274 49.3735 42.2214 49.4177C42.1154 49.4618 42.0193 49.5264 41.9384 49.6079C41.8575 49.6894 41.7936 49.786 41.7503 49.8923C41.707 49.9986 41.6851 50.1124 41.686 50.2272C41.686 50.4579 41.7776 50.6791 41.9407 50.8422C42.1039 51.0054 42.3251 51.097 42.5558 51.097H145.803C146.034 51.097 146.256 51.0056 146.42 50.8426C146.584 50.6797 146.677 50.4585 146.679 50.2272C146.679 49.9948 146.587 49.7719 146.422 49.6075C146.258 49.4432 146.035 49.3508 145.803 49.3508Z" fill="#E6E6E6"/>
<path d="M140.1 52.3591H50.0049V129.701H140.1V52.3591Z" fill="#F0F0F0"/>
<path d="M136.359 129.701H48.2587V132.18H138.936L136.359 129.701Z" fill="#E6E6E6"/>
<path d="M146.326 129.701H56.2375L58.8077 132.18H148.903L146.326 129.701Z" fill="#F0F0F0"/>
<path d="M134.868 124.469V57.5913L55.2434 57.5913V124.469H134.868Z" fill="#FAFAFA"/>
<path d="M73.3199 124.469L104.032 57.5913H118.538L87.8191 124.469H73.3199Z" fill="white"/>
<path d="M90.9322 124.469L121.651 57.5913H127.301L96.5893 124.469H90.9322Z" fill="white"/>
<path d="M134.868 124.469V57.5913H134.201V124.469H134.868Z" fill="#E6E6E6"/>
<g opacity="0.4">
<path d="M55.3022 47.7878H46.2966V111.612H55.3022V47.7878Z" fill="#F0F0F0"/>
<path d="M58.8142 47.7878H51.7968V111.612H58.8142V47.7878Z" fill="#E6E6E6"/>
<path d="M64.3078 47.7878H55.3022V111.612H64.3078V47.7878Z" fill="#F0F0F0"/>
<path d="M67.8198 47.7878H60.8024V111.612H67.8198V47.7878Z" fill="#E6E6E6"/>
<path d="M73.3134 47.7878H64.3078V111.612H73.3134V47.7878Z" fill="#F0F0F0"/>
</g>
<g opacity="0.4">
<path d="M131.519 47.7878H126.327V111.612H131.519V47.7878Z" fill="#F0F0F0"/>
<path d="M133.534 47.7878H129.492V111.612H133.534V47.7878Z" fill="#E6E6E6"/>
<path d="M136.706 47.7878H131.513V111.612H136.706V47.7878Z" fill="#F0F0F0"/>
<path d="M138.726 47.7878H134.685V111.612H138.726V47.7878Z" fill="#E6E6E6"/>
<path d="M141.898 47.7878H136.706V111.612H141.898V47.7878Z" fill="#F0F0F0"/>
</g>
<path d="M233.38 176.063C233.303 177.009 233.508 177.957 233.97 178.786C234.431 179.616 235.128 180.29 235.973 180.723C236.817 181.157 237.771 181.33 238.714 181.221C239.657 181.113 240.546 180.727 241.27 180.113C241.994 179.499 242.519 178.684 242.78 177.771C243.041 176.859 243.025 175.889 242.735 174.985C242.445 174.082 241.894 173.284 241.15 172.694C240.407 172.103 239.506 171.747 238.56 171.668C237.29 171.565 236.032 171.97 235.061 172.794C234.089 173.618 233.485 174.794 233.38 176.063Z" fill="#E0E0E0"/>
<path d="M246.727 183.708C249.354 183.322 251.169 180.88 250.783 178.253C250.397 175.627 247.954 173.811 245.328 174.197C242.701 174.583 240.885 177.026 241.272 179.652C241.658 182.279 244.101 184.095 246.727 183.708Z" fill="#E0E0E0"/>
<path d="M249.645 179.556C249.568 180.502 249.773 181.449 250.235 182.279C250.696 183.108 251.393 183.782 252.238 184.216C253.082 184.649 254.036 184.822 254.979 184.714C255.922 184.605 256.811 184.219 257.535 183.605C258.259 182.991 258.784 182.176 259.045 181.264C259.306 180.351 259.29 179.382 259 178.478C258.71 177.574 258.158 176.777 257.415 176.186C256.672 175.596 255.77 175.239 254.825 175.161C254.196 175.108 253.562 175.18 252.961 175.372C252.36 175.565 251.803 175.874 251.322 176.283C250.841 176.691 250.445 177.19 250.157 177.752C249.869 178.314 249.695 178.927 249.645 179.556Z" fill="#E0E0E0"/>
<path d="M224.453 178.581C224.376 179.527 224.581 180.475 225.042 181.304C225.504 182.134 226.201 182.808 227.045 183.241C227.89 183.675 228.844 183.848 229.787 183.739C230.73 183.631 231.619 183.245 232.343 182.631C233.067 182.017 233.592 181.202 233.853 180.289C234.114 179.377 234.098 178.407 233.808 177.503C233.518 176.6 232.966 175.802 232.223 175.212C231.48 174.621 230.578 174.265 229.632 174.186C228.363 174.083 227.104 174.488 226.133 175.312C225.162 176.136 224.558 177.312 224.453 178.581Z" fill="#E0E0E0"/>
<path d="M262.07 183.705C264.696 183.319 266.512 180.876 266.126 178.25C265.74 175.623 263.297 173.807 260.671 174.194C258.044 174.58 256.228 177.023 256.615 179.649C257.001 182.276 259.443 184.092 262.07 183.705Z" fill="#E0E0E0"/>
<path d="M225.888 178.563C227.906 176.837 228.142 173.803 226.417 171.785C224.691 169.768 221.657 169.531 219.639 171.257C217.621 172.982 217.385 176.017 219.11 178.034C220.836 180.052 223.87 180.289 225.888 178.563Z" fill="#E0E0E0"/>
<path d="M211.19 177.489C211.113 178.435 211.318 179.383 211.779 180.212C212.241 181.042 212.938 181.716 213.782 182.149C214.627 182.582 215.581 182.756 216.524 182.647C217.467 182.538 218.356 182.153 219.08 181.539C219.804 180.924 220.329 180.11 220.59 179.197C220.851 178.284 220.835 177.315 220.545 176.411C220.255 175.507 219.703 174.71 218.96 174.119C218.217 173.529 217.315 173.172 216.369 173.094C215.1 172.991 213.841 173.396 212.87 174.22C211.899 175.044 211.295 176.22 211.19 177.489Z" fill="#E0E0E0"/>
<path d="M205.703 178.784C205.703 178.784 206.527 198.45 238.128 198.45C269.729 198.45 270.553 178.784 270.553 178.784H205.703Z" fill="#F0F0F0"/>
<path d="M288.584 198.45H282.574V250.083H288.584V198.45Z" fill="#E6E6E6"/>
<path d="M290.186 198.45H286.648V250.083H290.186V198.45Z" fill="#F0F0F0"/>
<path d="M263.013 198.45H257.002V250.083H263.013V198.45Z" fill="#E6E6E6"/>
<path d="M264.138 198.45H260.599V250.083H264.138V198.45Z" fill="#F0F0F0"/>
<path d="M205.964 204.715H291.285V198.456H205.964V204.715Z" fill="#F0F0F0"/>
<path d="M179.889 198.45H173.879V250.083H179.889V198.45Z" fill="#E6E6E6"/>
<path d="M181.014 198.45H177.476V250.083H181.014V198.45Z" fill="#F0F0F0"/>
<path d="M172.806 204.715H203.394V198.456H172.806V204.715Z" fill="#E6E6E6"/>
<path d="M205.454 198.45H199.444V250.083H205.454V198.45Z" fill="#E6E6E6"/>
<path d="M207.063 198.45H203.525V250.083H207.063V198.45Z" fill="#F0F0F0"/>
<path d="M163.5 279.624C233.532 279.624 290.304 276.31 290.304 272.221C290.304 268.132 233.532 264.818 163.5 264.818C93.468 264.818 36.6959 268.132 36.6959 272.221C36.6959 276.31 93.468 279.624 163.5 279.624Z" fill="#F5F5F5"/>
<path d="M232.484 265.727C232.485 267.034 232.022 268.298 231.177 269.296C230.333 270.294 229.162 270.959 227.873 271.175C212.006 273.852 195.802 273.852 179.935 271.175C178.651 270.954 177.487 270.285 176.649 269.288C175.811 268.291 175.354 267.029 175.357 265.727V212.753H232.51L232.484 265.727Z" fill="#0A4E74"/>
<path opacity="0.3" d="M175.324 213.708V221.144C178.764 222.419 190.059 223.354 203.904 223.354C217.749 223.354 229.064 222.419 232.484 221.144V213.708H175.324Z" fill="black"/>
<path d="M233.556 219.378C233.556 221.058 220.581 222.419 203.904 222.419C187.227 222.419 174.252 221.058 174.252 219.378L173.709 212.772H234.132L233.556 219.378Z" fill="#0A4E74"/>
<path d="M203.904 215.807C220.58 215.807 234.099 214.448 234.099 212.772C234.099 211.096 220.58 209.738 203.904 209.738C187.228 209.738 173.709 211.096 173.709 212.772C173.709 214.448 187.228 215.807 203.904 215.807Z" fill="#0A4E74"/>
<path opacity="0.3" d="M203.904 215.807C220.58 215.807 234.099 214.448 234.099 212.772C234.099 211.096 220.58 209.738 203.904 209.738C187.228 209.738 173.709 211.096 173.709 212.772C173.709 214.448 187.228 215.807 203.904 215.807Z" fill="black"/>
<path opacity="0.2" d="M182.989 261.999C182.402 261.997 181.839 261.763 181.423 261.348C181.008 260.932 180.774 260.369 180.772 259.782V229.41C180.774 228.823 181.008 228.26 181.423 227.844C181.839 227.429 182.402 227.195 182.989 227.193C183.576 227.197 184.138 227.431 184.553 227.846C184.968 228.261 185.203 228.823 185.206 229.41V259.782C185.203 260.369 184.968 260.931 184.553 261.346C184.138 261.761 183.576 261.996 182.989 261.999Z" fill="black"/>
<path opacity="0.2" d="M224.826 261.999C224.238 261.997 223.675 261.763 223.26 261.348C222.844 260.932 222.61 260.369 222.609 259.782V229.41C222.61 228.823 222.844 228.26 223.26 227.844C223.675 227.429 224.238 227.195 224.826 227.193C225.413 227.197 225.974 227.431 226.39 227.846C226.805 228.261 227.039 228.823 227.043 229.41V259.782C227.039 260.369 226.805 260.931 226.39 261.346C225.974 261.761 225.413 261.996 224.826 261.999Z" fill="black"/>
<path opacity="0.2" d="M210.876 261.999C210.289 261.996 209.727 261.761 209.312 261.346C208.897 260.931 208.662 260.369 208.659 259.782V229.41C208.662 228.823 208.897 228.261 209.312 227.846C209.727 227.431 210.289 227.197 210.876 227.193C211.463 227.195 212.026 227.429 212.442 227.844C212.857 228.26 213.091 228.823 213.093 229.41V259.782C213.091 260.369 212.857 260.932 212.442 261.348C212.026 261.763 211.463 261.997 210.876 261.999Z" fill="black"/>
<path opacity="0.2" d="M196.932 261.999C196.346 261.996 195.784 261.761 195.369 261.346C194.954 260.931 194.719 260.369 194.715 259.782V229.41C194.719 228.823 194.954 228.261 195.369 227.846C195.784 227.431 196.346 227.197 196.932 227.193C197.52 227.195 198.083 227.429 198.498 227.844C198.914 228.26 199.148 228.823 199.15 229.41V259.782C199.148 260.369 198.914 260.932 198.498 261.348C198.083 261.763 197.52 261.997 196.932 261.999Z" fill="black"/>
<path d="M126.144 91.0106C126.144 91.6108 125.966 92.1975 125.632 92.6965C125.299 93.1956 124.825 93.5845 124.27 93.8142C123.716 94.0439 123.106 94.104 122.517 93.9869C121.928 93.8698 121.388 93.5808 120.963 93.1564C120.539 92.732 120.25 92.1913 120.133 91.6026C120.016 91.014 120.076 90.4039 120.305 89.8494C120.535 89.2949 120.924 88.8209 121.423 88.4875C121.922 88.154 122.509 87.9761 123.109 87.9761C123.914 87.9761 124.686 88.2958 125.255 88.8649C125.824 89.434 126.144 90.2058 126.144 91.0106Z" fill="#263238"/>
<path d="M120.67 91.4488C120.64 91.4496 120.611 91.442 120.585 91.427C120.56 91.412 120.539 91.39 120.526 91.3637C120.325 90.9953 120.199 90.591 120.155 90.1738C120.111 89.7567 120.149 89.3349 120.268 88.9326C120.386 88.5302 120.583 88.1552 120.847 87.829C121.11 87.5027 121.436 87.2315 121.804 87.031C122.173 86.8305 122.577 86.7045 122.994 86.6602C123.411 86.6159 123.833 86.6542 124.235 86.7729C124.638 86.8917 125.013 87.0885 125.339 87.3521C125.665 87.6158 125.936 87.9411 126.137 88.3096C126.156 88.348 126.16 88.3924 126.148 88.4336C126.136 88.4749 126.109 88.51 126.072 88.5319C126.053 88.5423 126.032 88.5488 126.011 88.5511C125.989 88.5535 125.968 88.5515 125.947 88.5454C125.926 88.5394 125.907 88.5293 125.89 88.5157C125.873 88.5022 125.86 88.4855 125.849 88.4665C125.486 87.7987 124.872 87.3027 124.143 87.0874C123.414 86.8722 122.629 86.9554 121.961 87.3188C121.293 87.6821 120.797 88.2959 120.582 89.0251C120.367 89.7542 120.45 90.539 120.813 91.2068C120.824 91.2257 120.83 91.2464 120.833 91.2678C120.835 91.2892 120.833 91.3109 120.827 91.3316C120.821 91.3522 120.811 91.3715 120.797 91.3882C120.784 91.405 120.767 91.4189 120.748 91.4292C120.724 91.4417 120.697 91.4484 120.67 91.4488Z" fill="#263238"/>
<path d="M117.72 104.875C117.129 104.873 116.55 104.707 116.048 104.395C115.545 104.084 115.139 103.639 114.874 103.111C114.609 102.582 114.496 101.99 114.547 101.402C114.598 100.813 114.811 100.249 115.163 99.7742C115.414 99.4383 115.728 99.1552 116.088 98.9408C116.449 98.7265 116.847 98.5852 117.262 98.5251C117.283 98.5214 117.305 98.522 117.326 98.527C117.347 98.532 117.366 98.5412 117.384 98.5541C117.401 98.567 117.415 98.5832 117.426 98.6019C117.436 98.6205 117.443 98.6411 117.445 98.6624C117.451 98.7048 117.44 98.7478 117.414 98.782C117.388 98.8162 117.35 98.8391 117.308 98.8455C116.556 98.9557 115.879 99.36 115.425 99.9696C114.971 100.579 114.778 101.344 114.888 102.096C114.998 102.848 115.403 103.525 116.012 103.979C116.622 104.433 117.387 104.626 118.139 104.516C118.182 104.509 118.226 104.519 118.262 104.545C118.297 104.571 118.321 104.61 118.328 104.653C118.335 104.696 118.325 104.741 118.299 104.776C118.273 104.812 118.234 104.836 118.191 104.843C118.035 104.863 117.878 104.874 117.72 104.875Z" fill="#263238"/>
<path d="M134.207 109.82C133.594 109.819 132.994 109.639 132.481 109.303C132.444 109.279 132.419 109.242 132.409 109.199C132.399 109.156 132.406 109.112 132.428 109.074C132.454 109.039 132.491 109.014 132.534 109.006C132.576 108.997 132.621 109.005 132.657 109.028C133.295 109.442 134.07 109.586 134.814 109.427C135.557 109.269 136.207 108.822 136.621 108.185C137.034 107.547 137.178 106.772 137.02 106.028C136.861 105.285 136.414 104.635 135.777 104.221C135.74 104.197 135.715 104.16 135.705 104.117C135.695 104.075 135.702 104.03 135.725 103.993C135.75 103.957 135.787 103.933 135.83 103.924C135.873 103.916 135.917 103.924 135.954 103.947C136.662 104.408 137.16 105.132 137.336 105.96C137.513 106.787 137.354 107.651 136.895 108.361C136.669 108.715 136.374 109.02 136.028 109.258C135.682 109.496 135.292 109.662 134.881 109.748C134.659 109.794 134.434 109.818 134.207 109.82Z" fill="#263238"/>
<path d="M121.409 100.474C123.778 100.474 125.699 98.5532 125.699 96.1838C125.699 93.8144 123.778 91.8936 121.409 91.8936C119.039 91.8936 117.118 93.8144 117.118 96.1838C117.118 98.5532 119.039 100.474 121.409 100.474Z" fill="#263238"/>
<path d="M125.435 105.982C127.657 103.76 127.657 100.158 125.435 97.9357C123.213 95.7137 119.611 95.7137 117.389 97.9357C115.167 100.158 115.167 103.76 117.389 105.982C119.611 108.204 123.213 108.204 125.435 105.982Z" fill="#263238"/>
<path d="M122.01 115.483C125.485 115.483 128.302 112.667 128.302 109.192C128.302 105.717 125.485 102.9 122.01 102.9C118.536 102.9 115.719 105.717 115.719 109.192C115.719 112.667 118.536 115.483 122.01 115.483Z" fill="#263238"/>
<path d="M134.428 111.064C135.226 107.682 133.132 104.294 129.75 103.495C126.368 102.697 122.979 104.792 122.181 108.173C121.383 111.555 123.478 114.944 126.859 115.742C130.241 116.54 133.63 114.446 134.428 111.064Z" fill="#263238"/>
<path d="M149.171 122.599C149.171 123.109 149.171 123.756 149.217 124.345C149.262 124.934 149.262 125.561 149.302 126.17C149.387 127.386 149.472 128.616 149.602 129.839C149.838 132.293 150.167 134.737 150.59 137.17C150.701 137.772 150.799 138.386 150.924 138.988L151.211 140.473C151.283 140.708 151.211 140.662 151.12 140.656C151.028 140.649 151.12 140.774 151.506 140.774C152.493 140.674 153.455 140.398 154.344 139.956C154.867 139.721 155.403 139.466 155.94 139.191C156.476 138.916 157.019 138.602 157.509 138.328L159.419 140.532C158.963 141.053 158.479 141.549 157.967 142.016C157.463 142.496 156.931 142.943 156.371 143.357C155.785 143.798 155.167 144.194 154.521 144.541C153.785 144.942 152.997 145.237 152.179 145.417C151.675 145.527 151.158 145.571 150.642 145.548C150.013 145.511 149.396 145.356 148.824 145.09C148.216 144.804 147.675 144.394 147.235 143.887C146.857 143.445 146.549 142.949 146.319 142.415C146.142 142.007 145.997 141.585 145.888 141.153L145.633 140.198C145.45 139.544 145.299 138.923 145.142 138.282C144.53 135.711 144.059 133.108 143.73 130.486C143.566 129.178 143.435 127.87 143.357 126.529C143.318 125.875 143.285 125.221 143.265 124.528C143.246 123.835 143.265 123.22 143.265 122.442L149.171 122.599Z" fill="#FFB573"/>
<path d="M145.999 115.549C151.578 119.819 151.355 127.87 151.355 127.87L141.375 130.257C141.375 130.257 138.314 122.161 139.557 119.198C140.852 116.111 142.86 113.142 145.999 115.549Z" fill="#0A4E74"/>
<path opacity="0.7" d="M145.999 115.549C151.578 119.819 151.355 127.87 151.355 127.87L141.375 130.257C141.375 130.257 138.314 122.161 139.557 119.198C140.852 116.111 142.86 113.142 145.999 115.549Z" fill="white"/>
<path d="M157.137 139.08L158.785 136.307L162.918 140.728C162.918 140.728 159.955 142.624 156.882 141.27L157.137 139.08Z" fill="#FFB573"/>
<path d="M160.819 134.979L166.123 138.105L162.918 140.728L158.785 136.307L160.819 134.979Z" fill="#FFB573"/>
<path d="M114.77 267.394L120.473 267.944L124.018 254.583L118.309 254.033L114.77 267.394Z" fill="#FFB573"/>
<path d="M85.5367 256.165L90.6575 258.847L96.7462 246.774L91.6254 244.092L85.5367 256.165Z" fill="#FFB573"/>
<path d="M92.0244 256.499L87.4464 251.849C87.3703 251.767 87.2667 251.717 87.1555 251.707C87.0444 251.698 86.9337 251.729 86.8447 251.797L82.6394 254.89C82.5375 254.972 82.4538 255.075 82.394 255.191C82.3341 255.307 82.2994 255.435 82.292 255.566C82.2846 255.696 82.3047 255.827 82.351 255.95C82.3974 256.072 82.4689 256.183 82.561 256.276C84.1829 257.872 85.0462 258.559 87.0605 260.606C88.3031 261.862 90.8537 264.824 92.5672 266.564C94.2806 268.304 96.0857 266.701 95.5298 265.825C93.0315 261.901 92.6129 259.435 92.456 257.441C92.4276 257.086 92.2747 256.752 92.0244 256.499Z" fill="#263238"/>
<path d="M121.363 266.211H114.45C114.326 266.212 114.206 266.253 114.108 266.329C114.011 266.404 113.94 266.51 113.907 266.629L112.429 272.064C112.392 272.193 112.386 272.329 112.411 272.461C112.437 272.593 112.493 272.717 112.575 272.823C112.657 272.93 112.763 273.015 112.884 273.073C113.005 273.131 113.139 273.159 113.273 273.156C115.699 273.156 116.85 273.156 119.878 273.156H129.145C131.663 273.156 132.193 270.612 131.147 270.377C126.477 269.343 123.783 267.917 122.344 266.557C122.071 266.324 121.721 266.2 121.363 266.211Z" fill="#263238"/>
<path opacity="0.2" d="M124.011 254.589L122.187 261.476H116.334L118.302 254.04L124.011 254.589Z" fill="black"/>
<path opacity="0.2" d="M91.6189 244.092L96.7462 246.78L93.607 253L88.4797 250.312L91.6189 244.092Z" fill="black"/>
<path d="M144.312 114.725C144.312 114.725 146.836 115.83 138.373 149.315L114.869 147.281C116.092 137.752 116.608 131.853 113.737 111.821C117.088 111.429 120.463 111.278 123.835 111.37C127.41 111.424 130.977 111.732 134.508 112.292C137.815 112.937 141.087 113.749 144.312 114.725Z" fill="#0A4E74"/>
<path opacity="0.7" d="M144.312 114.725C144.312 114.725 146.836 115.83 138.373 149.315L114.869 147.281C116.092 137.752 116.608 131.853 113.737 111.821C117.088 111.429 120.463 111.278 123.835 111.37C127.41 111.424 130.977 111.732 134.508 112.292C137.815 112.937 141.087 113.749 144.312 114.725Z" fill="white"/>
<path d="M123.835 111.18C123.835 111.18 122.527 111.18 120.925 111.18C119.976 112.638 123.979 116.896 129.067 121.081C130.296 117.269 132.232 117.282 132.232 117.282L123.835 111.18Z" fill="white"/>
<path d="M134.502 112.207C134.502 112.207 135.097 112.292 136.523 112.619C137.464 114.077 137.994 117.727 135.215 120.905C134.122 116.981 132.239 117.334 132.239 117.334L134.502 112.207Z" fill="white"/>
<path d="M125.928 99.4407C126.307 102.933 126.431 109.251 123.835 111.37C123.835 111.37 126.608 114.208 132.232 117.334C136.313 114.509 134.508 112.292 134.508 112.292C130.754 111.049 131.101 108.217 131.997 105.601L125.928 99.4407Z" fill="#FFB573"/>
<path opacity="0.2" d="M128.406 101.958L131.997 105.601C131.777 106.207 131.61 106.83 131.5 107.465C130.061 107.132 127.968 105.627 127.942 104.084C127.967 103.353 128.124 102.633 128.406 101.958Z" fill="black"/>
<path d="M139.413 88.0481C141.82 90.1801 142.526 95.3729 140.237 98.898C139.55 95.3246 139.274 91.6843 139.413 88.0481Z" fill="#263238"/>
<path d="M125.195 92.1094C124.777 97.8581 124.482 100.284 126.968 103.6C130.708 108.59 137.863 107.838 139.989 102.331C141.905 97.3676 142.265 88.8002 136.987 85.7787C135.827 85.1017 134.513 84.7337 133.17 84.7097C131.828 84.6858 130.501 85.0068 129.318 85.642C128.135 86.2772 127.135 87.2054 126.413 88.3377C125.691 89.4701 125.272 90.7687 125.195 92.1094Z" fill="#FFB573"/>
<path d="M124.43 96.7397C128.681 96.5762 131.035 91.0172 129.969 88.6693C134.789 91.1807 142.088 93.1557 141.277 89.925C140.185 85.5628 134.907 82.3647 128.413 84.693C124.652 86.328 121.435 89.925 124.43 96.7397Z" fill="#263238"/>
<path d="M123.135 96.733C123.317 97.8323 123.923 98.8163 124.822 99.4733C126.026 100.33 127.125 99.3752 127.21 97.9822C127.288 96.72 126.758 94.7579 125.346 94.4571C125.036 94.3957 124.716 94.4126 124.415 94.5064C124.114 94.6002 123.841 94.7679 123.622 94.9941C123.402 95.2204 123.242 95.498 123.157 95.8017C123.072 96.1054 123.065 96.4256 123.135 96.733Z" fill="#FFB573"/>
<path d="M138.373 149.315C138.373 149.315 143.69 184.01 140.728 206.298C138.484 223.138 124.011 259.475 124.011 259.475L114.613 259.219C114.613 259.219 124.319 224.002 126.327 210.169C129.76 186.482 121.16 147.85 121.16 147.85L138.373 149.315Z" fill="#263238"/>
<path opacity="0.2" d="M129.204 156.424L124.188 164.33C125.699 173.706 126.657 183.161 127.059 192.649C134.109 180.026 130.8 163.101 129.204 156.424Z" fill="black"/>
<path d="M125.476 259.998L113.665 259.677L114.385 255.877L126.588 255.949L125.476 259.998Z" fill="#0A4E74"/>
<path d="M133.233 148.942C133.233 148.942 129.309 187.358 120.343 208.26C113.09 225.133 95.7979 252.123 95.7979 252.123L88.8917 248.082C88.8917 248.082 100.01 218.07 105.497 206.821C118.884 179.242 106.432 157.117 114.869 147.307L133.233 148.942Z" fill="#263238"/>
<path d="M96.55 252.712L87.7407 247.879L89.1729 244.112L98.5578 249.409L96.55 252.712Z" fill="#0A4E74"/>
<path d="M114.633 145.875L113.391 147.889C113.299 148.04 113.476 148.229 113.75 148.249L138.399 150.381C138.609 150.381 138.798 150.309 138.818 150.178L139.217 148.092C139.217 147.948 139.067 147.811 138.838 147.791L115.032 145.731C114.959 145.72 114.884 145.727 114.814 145.752C114.745 145.777 114.682 145.819 114.633 145.875Z" fill="#0A4E74"/>
<path d="M117.602 148.811L116.948 148.759C116.824 148.759 116.732 148.674 116.746 148.595L117.282 145.888C117.282 145.803 117.419 145.75 117.543 145.763L118.197 145.816C118.328 145.816 118.42 145.901 118.4 145.979L117.87 148.687C117.844 148.765 117.72 148.824 117.602 148.811Z" fill="#263238"/>
<path d="M136.588 150.453L135.934 150.4C135.803 150.4 135.712 150.315 135.731 150.237L136.267 147.529C136.267 147.451 136.398 147.392 136.523 147.405L137.177 147.457C137.301 147.457 137.392 147.542 137.379 147.621L136.843 150.329C136.83 150.42 136.686 150.466 136.588 150.453Z" fill="#263238"/>
<path d="M127.092 149.635L126.438 149.576C126.314 149.576 126.222 149.491 126.235 149.413L126.771 146.705C126.771 146.627 126.902 146.568 127.033 146.581L127.687 146.64C127.811 146.64 127.903 146.725 127.89 146.803L127.353 149.511C127.34 149.589 127.223 149.642 127.092 149.635Z" fill="#263238"/>
<path d="M134.201 94.9672C134.135 95.4316 134.332 95.8436 134.632 95.8828C134.933 95.9221 135.234 95.582 135.286 95.1177C135.339 94.6533 135.149 94.2413 134.848 94.2021C134.547 94.1628 134.26 94.5029 134.201 94.9672Z" fill="#263238"/>
<path d="M139.446 95.6735C139.387 96.1379 139.583 96.5499 139.884 96.5891C140.185 96.6284 140.486 96.2883 140.538 95.824C140.59 95.3596 140.407 94.9476 140.106 94.9084C139.806 94.8691 139.511 95.2092 139.446 95.6735Z" fill="#263238"/>
<path d="M139.956 94.9149L141.12 94.7449C141.12 94.7449 140.44 95.5362 139.956 94.9149Z" fill="#263238"/>
<path d="M137.386 96.1838C137.658 97.2974 138.081 98.3688 138.641 99.3688C138.383 99.5063 138.097 99.5858 137.805 99.6016C137.512 99.6174 137.22 99.5692 136.948 99.4604L137.386 96.1838Z" fill="#ED893E"/>
<path d="M134.227 100.847C133.307 100.547 132.536 99.9089 132.069 99.0615C132.057 99.0344 132.056 99.0039 132.066 98.976C132.075 98.9482 132.095 98.925 132.121 98.911C132.149 98.8974 132.181 98.8952 132.21 98.905C132.24 98.9148 132.264 98.9357 132.278 98.9634C132.569 99.4729 132.975 99.9066 133.465 100.229C133.955 100.552 134.514 100.755 135.097 100.821C135.126 100.821 135.155 100.832 135.175 100.853C135.196 100.874 135.208 100.902 135.208 100.932C135.208 100.961 135.196 100.99 135.175 101.011C135.155 101.031 135.126 101.043 135.097 101.043C134.8 101.01 134.509 100.945 134.227 100.847Z" fill="#263238"/>
<path d="M131.814 92.2793C131.776 92.2636 131.742 92.2389 131.716 92.2074C131.694 92.1866 131.677 92.1617 131.665 92.1342C131.653 92.1067 131.647 92.0771 131.647 92.0471C131.647 92.0172 131.653 91.9876 131.665 91.9601C131.677 91.9325 131.694 91.9077 131.716 91.8869C132.036 91.6003 132.421 91.3958 132.838 91.291C133.255 91.1862 133.691 91.1842 134.109 91.2852C134.138 91.2934 134.164 91.3073 134.188 91.326C134.211 91.3447 134.23 91.3678 134.244 91.394C134.258 91.4203 134.267 91.449 134.269 91.4786C134.272 91.5083 134.269 91.5381 134.26 91.5664C134.243 91.6244 134.204 91.6734 134.151 91.7027C134.099 91.7321 134.037 91.7396 133.978 91.7234C133.634 91.6468 133.277 91.6532 132.936 91.7419C132.595 91.8306 132.28 91.9991 132.016 92.2335C131.988 92.2553 131.955 92.2707 131.92 92.2786C131.885 92.2865 131.849 92.2868 131.814 92.2793Z" fill="#263238"/>
<path d="M141.65 93.6724C141.616 93.6591 141.585 93.6391 141.558 93.6136C141.329 93.3445 141.04 93.1332 140.714 92.9969C140.387 92.8605 140.034 92.8029 139.681 92.8288C139.652 92.8354 139.621 92.8356 139.591 92.8294C139.561 92.8232 139.533 92.8108 139.508 92.7928C139.483 92.7749 139.462 92.7519 139.447 92.7254C139.432 92.6989 139.423 92.6695 139.42 92.6391C139.41 92.5793 139.425 92.5182 139.461 92.4691C139.496 92.4201 139.55 92.3872 139.609 92.3775C140.036 92.3391 140.466 92.4033 140.863 92.5649C141.26 92.7264 141.613 92.9806 141.892 93.3062C141.924 93.344 141.942 93.391 141.945 93.4403C141.948 93.4896 141.935 93.5385 141.908 93.5797C141.88 93.6209 141.841 93.6522 141.794 93.6689C141.748 93.6856 141.697 93.6868 141.65 93.6724Z" fill="#263238"/>
<path d="M146.823 143.017C147.246 141.697 147.926 140.475 148.822 139.418C149.718 138.361 150.813 137.491 152.045 136.858C153.277 136.224 154.622 135.84 156.003 135.726C157.384 135.613 158.773 135.772 160.093 136.195C161.412 136.619 162.635 137.298 163.691 138.194C164.748 139.09 165.618 140.185 166.252 141.418C166.885 142.65 167.269 143.995 167.383 145.375C167.497 146.756 167.337 148.146 166.914 149.465L162.846 162.192L142.755 155.737L146.823 143.017Z" fill="#0A4E74"/>
<path opacity="0.3" d="M146.823 143.017C147.246 141.697 147.926 140.475 148.822 139.418C149.718 138.361 150.813 137.491 152.045 136.858C153.277 136.224 154.622 135.84 156.003 135.726C157.384 135.613 158.773 135.772 160.093 136.195C161.412 136.619 162.635 137.298 163.691 138.194C164.748 139.09 165.618 140.185 166.252 141.418C166.885 142.65 167.269 143.995 167.383 145.375C167.497 146.756 167.337 148.146 166.914 149.465L162.846 162.192L142.755 155.737L146.823 143.017Z" fill="black"/>
<path d="M127 136.647L123.325 148.092C123.271 148.256 123.25 148.43 123.264 148.602C123.278 148.775 123.325 148.943 123.404 149.096C123.484 149.25 123.592 149.387 123.725 149.499C123.857 149.61 124.01 149.694 124.175 149.746L142.749 155.711L146.83 143.01C147.686 140.348 149.564 138.136 152.051 136.858C154.538 135.58 157.43 135.342 160.093 136.195L140.27 129.825C137.606 128.974 134.712 129.213 132.225 130.492C129.737 131.771 127.858 133.984 127 136.647Z" fill="#0A4E74"/>
<path d="M136.967 145.325L142.088 129.387C142.106 129.33 142.111 129.27 142.103 129.21C142.095 129.151 142.075 129.094 142.043 129.043C142.012 128.992 141.97 128.949 141.92 128.916C141.87 128.883 141.814 128.861 141.755 128.851L136.523 128.079L135.869 130.146L139.681 131.369L135.365 144.802L136.967 145.325Z" fill="#263238"/>
<path d="M134.247 144.449C134.128 144.818 134.122 145.214 134.229 145.587C134.336 145.96 134.551 146.293 134.846 146.544C135.142 146.794 135.506 146.952 135.891 146.996C136.276 147.04 136.666 146.97 137.011 146.792C137.356 146.615 137.641 146.34 137.829 146.001C138.018 145.662 138.102 145.275 138.071 144.889C138.04 144.502 137.894 144.134 137.654 143.829C137.413 143.525 137.088 143.299 136.719 143.18C136.473 143.101 136.214 143.071 135.957 143.091C135.7 143.112 135.449 143.184 135.219 143.301C134.99 143.419 134.786 143.581 134.619 143.778C134.452 143.975 134.325 144.203 134.247 144.449Z" fill="#263238"/>
<path d="M143.716 157.614L169.484 165.887C169.578 165.918 169.676 165.929 169.775 165.921C169.873 165.914 169.968 165.886 170.056 165.841C170.143 165.796 170.221 165.734 170.285 165.659C170.348 165.584 170.396 165.497 170.426 165.403C170.457 165.31 170.47 165.211 170.462 165.112C170.455 165.014 170.428 164.918 170.383 164.83C170.337 164.742 170.275 164.665 170.2 164.601C170.124 164.538 170.036 164.49 169.942 164.461L142.749 155.73C142.627 156.109 142.661 156.519 142.843 156.873C143.024 157.226 143.338 157.493 143.716 157.614Z" fill="#0A4E74"/>
<path opacity="0.2" d="M143.716 157.614L154.246 160.995C154.34 161.026 154.439 161.038 154.538 161.03C154.636 161.022 154.732 160.995 154.82 160.95C154.908 160.905 154.987 160.843 155.051 160.768C155.115 160.692 155.164 160.605 155.194 160.511C155.254 160.322 155.237 160.117 155.146 159.941C155.055 159.764 154.899 159.631 154.71 159.569L142.749 155.73C142.627 156.109 142.661 156.519 142.843 156.873C143.024 157.226 143.338 157.493 143.716 157.614Z" fill="black"/>
<path d="M116.504 121.055L116.144 121.454L115.738 121.919C115.464 122.233 115.189 122.573 114.927 122.893C114.391 123.547 113.881 124.247 113.404 124.953C111.428 127.75 109.872 130.822 108.786 134.07C108.525 134.881 108.283 135.692 108.093 136.523C108.028 136.765 108.021 136.863 107.988 136.974C107.983 137.07 107.983 137.166 107.988 137.262C107.978 137.364 107.978 137.467 107.988 137.569C107.988 137.687 108.211 137.961 108.747 138.223C109.392 138.513 110.071 138.72 110.768 138.838C112.45 139.105 114.153 139.217 115.856 139.171C117.635 139.171 119.44 139.014 121.245 138.825C123.05 138.635 124.881 138.4 126.654 138.131L127.367 140.963C123.716 142.151 119.96 142.986 116.15 143.455C114.144 143.716 112.116 143.76 110.101 143.586C108.949 143.478 107.817 143.209 106.739 142.788C106.093 142.529 105.485 142.181 104.934 141.755C104.285 141.246 103.751 140.606 103.365 139.878C102.7 138.511 102.523 136.958 102.861 135.476C103.018 134.476 103.247 133.514 103.515 132.507C104.028 130.574 104.711 128.689 105.556 126.876C106.402 125.059 107.388 123.309 108.505 121.644C109.068 120.813 109.669 120.009 110.297 119.218C110.618 118.825 110.951 118.439 111.278 118.054L111.808 117.485C111.998 117.282 112.148 117.118 112.41 116.87L116.504 121.055Z" fill="#FFB573"/>
<path d="M125.228 138.733L129.806 136.307L130.009 141.225C130.009 141.225 126.739 142.578 124.868 141.087L125.228 138.733Z" fill="#FFB573"/>
<path d="M133.58 135.934L132.893 140.466L130.015 141.225L129.812 136.307L133.58 135.934Z" fill="#FFB573"/>
<path d="M113.737 111.834C110.853 112.344 106.818 120.611 106.818 120.611L114.084 127.151C114.084 127.151 119.859 120.846 119.551 117.092C119.29 113.92 117.406 111.18 113.737 111.834Z" fill="#0A4E74"/>
<path opacity="0.7" d="M113.737 111.834C110.853 112.344 106.818 120.611 106.818 120.611L114.084 127.151C114.084 127.151 119.859 120.846 119.551 117.092C119.29 113.92 117.406 111.18 113.737 111.834Z" fill="white"/>
<path d="M94.2741 259.023C94.1981 259.033 94.1212 259.033 94.0452 259.023C93.3193 258.984 92.5475 257.872 92.1486 257.218C92.1362 257.2 92.1296 257.178 92.1296 257.156C92.1296 257.134 92.1362 257.112 92.1486 257.094C92.1605 257.075 92.1785 257.06 92.1998 257.051C92.221 257.043 92.2444 257.042 92.2663 257.048C92.5018 257.094 94.5357 257.552 94.7908 258.238C94.8172 258.313 94.8239 258.393 94.8102 258.471C94.7964 258.549 94.7627 258.622 94.7123 258.683C94.6076 258.842 94.4536 258.961 94.2741 259.023ZM92.4887 257.362C93.0707 258.258 93.6463 258.794 94.0583 258.821C94.1521 258.822 94.2448 258.8 94.3274 258.755C94.4099 258.71 94.4794 258.645 94.5291 258.565C94.5574 258.537 94.5767 258.5 94.5848 258.461C94.5929 258.422 94.5895 258.381 94.5749 258.343C94.418 257.925 93.195 257.532 92.4887 257.362Z" fill="#0A4E74"/>
<path d="M94.0648 257.218C93.4618 257.384 92.8289 257.411 92.214 257.297C92.1947 257.29 92.1774 257.279 92.1636 257.264C92.1499 257.25 92.1402 257.231 92.1355 257.212C92.1264 257.195 92.1216 257.175 92.1216 257.156C92.1216 257.137 92.1264 257.118 92.1355 257.1C92.1879 257.055 93.3781 255.891 94.2087 255.949C94.3114 255.951 94.4122 255.977 94.5031 256.024C94.594 256.072 94.6724 256.14 94.7319 256.224C94.8033 256.301 94.8473 256.399 94.8567 256.503C94.8662 256.607 94.8407 256.712 94.7842 256.8C94.5964 257.014 94.3438 257.161 94.0648 257.218ZM92.4887 257.114C93.1427 257.205 94.3657 257.042 94.6207 256.669C94.66 256.61 94.6927 256.518 94.575 256.368C94.5354 256.311 94.4828 256.263 94.4213 256.23C94.3599 256.197 94.2915 256.18 94.2218 256.178C93.6528 256.139 92.8288 256.806 92.4887 257.114Z" fill="#0A4E74"/>
<path d="M123.802 267.087C123.17 267.072 122.541 266.991 121.925 266.845C121.904 266.837 121.885 266.823 121.872 266.804C121.859 266.786 121.852 266.763 121.852 266.74C121.852 266.717 121.859 266.695 121.872 266.676C121.885 266.658 121.904 266.643 121.925 266.636C122.206 266.498 124.711 265.328 125.339 265.772C125.396 265.811 125.441 265.864 125.47 265.926C125.498 265.989 125.51 266.057 125.503 266.126C125.5 266.253 125.467 266.379 125.408 266.492C125.349 266.605 125.265 266.704 125.163 266.78C124.752 267.021 124.277 267.129 123.802 267.087ZM122.318 266.695C123.057 266.832 124.43 267.015 124.999 266.59C125.072 266.532 125.132 266.46 125.175 266.378C125.218 266.296 125.242 266.205 125.248 266.112C125.253 266.084 125.25 266.054 125.238 266.027C125.227 266 125.207 265.977 125.182 265.962C124.829 265.72 123.351 266.237 122.298 266.695H122.318Z" fill="#0A4E74"/>
<path d="M121.945 266.832C121.921 266.838 121.896 266.838 121.873 266.832C121.857 266.817 121.845 266.799 121.838 266.778C121.832 266.757 121.83 266.735 121.834 266.714C121.834 266.61 122.429 264.144 123.796 264.301C124.136 264.347 124.227 264.51 124.247 264.648C124.332 265.302 122.756 266.538 122.004 266.851L121.945 266.832ZM123.658 264.497C122.795 264.497 122.291 265.936 122.121 266.511C122.939 266.08 124.083 265.053 124.011 264.654C124.011 264.621 124.011 264.53 123.756 264.504L123.658 264.497Z" fill="#0A4E74"/>
<path d="M134.724 94.2086L135.882 94.0386C135.882 94.0386 135.195 94.8299 134.724 94.2086Z" fill="#263238"/>
<path d="M174.965 148.922L149.642 154.154C149.209 154.236 148.761 154.144 148.394 153.9C148.028 153.655 147.771 153.277 147.68 152.846L146.496 147.353L146.071 145.325L146.816 143.01C146.92 142.678 147.045 142.352 147.189 142.036C147.206 141.985 147.227 141.937 147.255 141.892C147.672 140.939 148.235 140.057 148.922 139.276L150.23 139.001L171.943 134.495C172.376 134.414 172.824 134.505 173.191 134.749C173.557 134.994 173.814 135.372 173.905 135.803L176.214 146.921C176.308 147.352 176.23 147.802 175.997 148.176C175.764 148.55 175.393 148.818 174.965 148.922Z" fill="#0A4E74"/>
<path opacity="0.3" d="M173.709 135.214L161.492 147.64L158.876 146.581L148.7 142.454L147.268 141.872C147.685 140.919 148.248 140.037 148.935 139.256L150.243 138.981L171.956 134.475C172.289 134.409 172.634 134.444 172.946 134.576C173.259 134.707 173.524 134.93 173.709 135.214Z" fill="black"/>
<path d="M173.709 135.214L158.876 146.601L157.908 147.346L148.589 142.722L147.202 142.068C147.219 142.018 147.241 141.97 147.268 141.925C147.685 140.972 148.248 140.089 148.935 139.309L150.243 139.034L171.956 134.528C172.284 134.456 172.625 134.483 172.937 134.605C173.249 134.727 173.517 134.94 173.709 135.214Z" fill="#0A4E74"/>
<path opacity="0.2" d="M173.709 135.214L158.876 146.601L157.908 147.346L148.589 142.722L147.202 142.068C147.219 142.018 147.241 141.97 147.268 141.925C147.685 140.972 148.248 140.089 148.935 139.309L150.243 139.034L171.956 134.528C172.284 134.456 172.625 134.483 172.937 134.605C173.249 134.727 173.517 134.94 173.709 135.214Z" fill="white"/>
<path d="M205.879 171.858L198.162 180.177C197.857 180.501 197.437 180.692 196.992 180.708C196.548 180.724 196.115 180.564 195.788 180.262L176.861 162.637C176.535 162.333 176.343 161.912 176.327 161.467C176.312 161.022 176.473 160.589 176.776 160.263L184.52 151.944C184.67 151.781 184.85 151.649 185.052 151.556C185.253 151.464 185.471 151.412 185.692 151.404C185.914 151.396 186.134 151.432 186.342 151.51C186.549 151.588 186.739 151.707 186.9 151.859L205.82 169.484C206.066 169.712 206.237 170.008 206.313 170.335C206.389 170.661 206.365 171.002 206.245 171.315C206.164 171.52 206.039 171.705 205.879 171.858Z" fill="#0A4E74"/>
<path opacity="0.3" d="M206.219 171.348L189.006 168.542L185.01 151.538C185.315 151.398 185.655 151.351 185.987 151.403C186.318 151.456 186.627 151.605 186.874 151.833L205.794 169.458C206.051 169.691 206.23 169.997 206.306 170.335C206.383 170.674 206.352 171.028 206.219 171.348Z" fill="black"/>
<path d="M206.219 171.348L189.457 166.351L185.01 151.597C185.315 151.457 185.655 151.41 185.987 151.462C186.318 151.514 186.627 151.664 186.874 151.891L205.794 169.517C206.039 169.745 206.211 170.041 206.287 170.367C206.362 170.694 206.339 171.035 206.219 171.348Z" fill="#0A4E74"/>
<path opacity="0.2" d="M206.219 171.348L189.457 166.351L185.01 151.597C185.315 151.457 185.655 151.41 185.987 151.462C186.318 151.514 186.627 151.664 186.874 151.891L205.794 169.517C206.039 169.745 206.211 170.041 206.287 170.367C206.362 170.694 206.339 171.035 206.219 171.348Z" fill="white"/>
<path d="M212.609 185.559L221.111 195.487C221.273 195.677 221.395 195.898 221.469 196.137C221.544 196.375 221.568 196.627 221.542 196.875C221.516 197.124 221.439 197.364 221.316 197.582C221.194 197.8 221.028 197.991 220.83 198.142L202.361 212.53C202.05 212.717 201.682 212.782 201.326 212.712C200.971 212.642 200.654 212.442 200.438 212.151L193.787 204.565C193.662 204.419 193.558 204.256 193.479 204.081C193.356 203.84 193.304 203.569 193.331 203.3C193.358 203.031 193.461 202.775 193.63 202.563L209.98 185.487C210.235 185.211 210.572 185.024 210.942 184.953C211.312 184.883 211.694 184.932 212.033 185.095C212.253 185.212 212.448 185.37 212.609 185.559Z" fill="#0A4E74"/>
<path opacity="0.3" d="M212.033 185.115L207.972 203.178L193.506 204.1C193.382 203.86 193.331 203.589 193.357 203.32C193.384 203.051 193.488 202.795 193.656 202.583L210.006 185.507C210.259 185.236 210.592 185.053 210.956 184.982C211.32 184.912 211.697 184.958 212.033 185.115Z" fill="black"/>
<path d="M212.033 185.115L205.225 204.283L193.492 204.1C193.369 203.86 193.317 203.589 193.344 203.319C193.371 203.05 193.475 202.795 193.643 202.583L209.993 185.507C210.247 185.233 210.582 185.048 210.949 184.977C211.316 184.907 211.696 184.955 212.033 185.115Z" fill="#0A4E74"/>
<path opacity="0.2" d="M212.033 185.115L205.225 204.283L193.492 204.1C193.369 203.86 193.317 203.589 193.344 203.319C193.371 203.05 193.475 202.795 193.643 202.583L209.993 185.507C210.247 185.233 210.582 185.048 210.949 184.977C211.316 184.907 211.696 184.955 212.033 185.115Z" fill="white"/>
</svg>
