<svg width="20" height="20" viewBox="0 0 20 20" fill="none" xmlns="http://www.w3.org/2000/svg">
<path fill-rule="evenodd" clip-rule="evenodd" d="M4.16683 16.6667H15.8335C16.0545 16.6667 16.2665 16.7545 16.4228 16.9108C16.579 17.0671 16.6668 17.2791 16.6668 17.5001C16.6668 17.7211 16.579 17.9331 16.4228 18.0893C16.2665 18.2456 16.0545 18.3334 15.8335 18.3334H4.16683C3.94582 18.3334 3.73385 18.2456 3.57757 18.0893C3.42129 17.9331 3.3335 17.7211 3.3335 17.5001C3.3335 17.2791 3.42129 17.0671 3.57757 16.9108C3.73385 16.7545 3.94582 16.6667 4.16683 16.6667ZM3.3335 12.5001L11.6668 4.16675L14.1668 6.66675L5.8335 15.0001H3.3335V12.5001ZM12.5002 3.33341L14.1668 1.66675L16.6668 4.16675L14.9993 5.83425L12.5002 3.33341Z" fill="#0073B3"/>
</svg>
