<svg width="23" height="16" viewBox="0 0 23 16" fill="none" xmlns="http://www.w3.org/2000/svg">
<path d="M11.5 2.13333C15.4623 2.13333 18.9959 4.40533 20.7209 8C18.9959 11.5947 15.4727 13.8667 11.5 13.8667C7.52727 13.8667 4.00409 11.5947 2.27909 8C4.00409 4.40533 7.53773 2.13333 11.5 2.13333ZM11.5 0C6.27273 0 1.80864 3.31733 0 8C1.80864 12.6827 6.27273 16 11.5 16C16.7273 16 21.1914 12.6827 23 8C21.1914 3.31733 16.7273 0 11.5 0ZM11.5 5.33333C12.9427 5.33333 14.1136 6.528 14.1136 8C14.1136 9.472 12.9427 10.6667 11.5 10.6667C10.0573 10.6667 8.88636 9.472 8.88636 8C8.88636 6.528 10.0573 5.33333 11.5 5.33333ZM11.5 3.2C8.90727 3.2 6.79545 5.35467 6.79545 8C6.79545 10.6453 8.90727 12.8 11.5 12.8C14.0927 12.8 16.2045 10.6453 16.2045 8C16.2045 5.35467 14.0927 3.2 11.5 3.2Z" fill="#60778C"/>
</svg>
