<svg width="321" height="312" viewBox="0 0 321 312" fill="none" xmlns="http://www.w3.org/2000/svg">
<path fill-rule="evenodd" clip-rule="evenodd" d="M136.62 25.3096C178.933 26.9006 221.07 33.1843 253.741 59.9975C289.842 89.6265 322.66 130.037 320.935 176.58C319.243 222.23 282.482 257.945 245.408 284.869C214.117 307.593 175.219 313.646 136.62 310.434C101.629 307.521 67.3308 294.813 44.621 268.156C23.4192 243.269 27.6774 208.815 22.5868 176.58C15.7575 133.335 -16.0927 85.8583 10.3025 50.8437C37.1101 15.2821 91.9864 23.6313 136.62 25.3096Z" fill="#058AD6" fill-opacity="0.6"/>
<path d="M198.34 73.2133H196.993V36.3391C196.993 33.5364 196.441 30.7611 195.369 28.1717C194.297 25.5823 192.725 23.2295 190.743 21.2476C188.761 19.2658 186.409 17.6936 183.819 16.621C181.23 15.5483 178.455 14.9962 175.652 14.9961H97.5284C91.8682 14.9961 86.4398 17.2446 82.4374 21.247C78.435 25.2494 76.1865 30.6778 76.1865 36.338V238.634C76.1865 244.294 78.435 249.723 82.4374 253.725C86.4398 257.728 91.8682 259.976 97.5284 259.976H175.652C181.312 259.976 186.741 257.728 190.743 253.725C194.745 249.723 196.994 244.294 196.994 238.634V99.4611H198.341L198.34 73.2133Z" fill="#3F3D56"/>
<path d="M192.451 36.4879V238.486C192.451 242.713 190.772 246.767 187.783 249.756C184.794 252.745 180.74 254.424 176.513 254.424H98.0146C93.7875 254.424 89.7336 252.745 86.7445 249.756C83.7555 246.767 82.0763 242.713 82.0762 238.486V36.4879C82.0766 32.261 83.7559 28.2074 86.7448 25.2187C89.7337 22.2299 93.7874 20.5507 98.0143 20.5505H107.537C107.07 21.7004 106.891 22.9477 107.019 24.1826C107.146 25.4175 107.574 26.6022 108.267 27.6325C108.96 28.6628 109.895 29.5072 110.99 30.0913C112.086 30.6754 113.308 30.9813 114.549 30.9822H159.305C160.547 30.9812 161.769 30.6753 162.864 30.0912C163.96 29.507 164.895 28.6627 165.587 27.6324C166.28 26.6021 166.708 25.4174 166.836 24.1825C166.963 22.9476 166.785 21.7004 166.317 20.5505H176.513C180.74 20.5506 184.794 22.2299 187.783 25.2189C190.772 28.2079 192.451 32.2619 192.451 36.489V36.4879Z" fill="white"/>
<path d="M93.0325 40.6943C93.4703 40.6943 93.8252 40.3394 93.8252 39.9016C93.8252 39.4638 93.4703 39.1089 93.0325 39.1089C92.5947 39.1089 92.2397 39.4638 92.2397 39.9016C92.2397 40.3394 92.5947 40.6943 93.0325 40.6943Z" fill="#3F3D56"/>
<path d="M95.9392 40.6943C96.377 40.6943 96.7319 40.3394 96.7319 39.9016C96.7319 39.4638 96.377 39.1089 95.9392 39.1089C95.5014 39.1089 95.1465 39.4638 95.1465 39.9016C95.1465 40.3394 95.5014 40.6943 95.9392 40.6943Z" fill="#3F3D56"/>
<path d="M98.8464 40.6943C99.2842 40.6943 99.6391 40.3394 99.6391 39.9016C99.6391 39.4638 99.2842 39.1089 98.8464 39.1089C98.4086 39.1089 98.0537 39.4638 98.0537 39.9016C98.0537 40.3394 98.4086 40.6943 98.8464 40.6943Z" fill="#3F3D56"/>
<path d="M181.826 37.7878H173.634V38.8448H181.826V37.7878Z" fill="#3F3D56"/>
<path d="M181.826 39.373H173.634V40.43H181.826V39.373Z" fill="#3F3D56"/>
<path d="M181.826 40.959H173.634V42.0159H181.826V40.959Z" fill="#3F3D56"/>
<path d="M139.828 53.5718H99.6625C97.874 53.5738 96.1591 54.3956 94.8941 55.857C93.6291 57.3184 92.9172 59.3 92.9146 61.3672V158.439H169.396V87.7459C169.387 78.6856 166.269 69.9993 160.726 63.5927C155.183 57.1861 147.668 53.5822 139.828 53.5718Z" fill="white"/>
<path d="M156.158 149.7H106.153C105.721 149.7 105.306 149.91 105.001 150.282C104.695 150.655 104.523 151.16 104.523 151.687C104.523 152.213 104.695 152.719 105.001 153.091C105.306 153.463 105.721 153.673 106.153 153.673H156.158C156.59 153.673 157.004 153.463 157.31 153.091C157.616 152.719 157.787 152.213 157.787 151.687C157.787 151.16 157.616 150.655 157.31 150.282C157.004 149.91 156.59 149.7 156.158 149.7Z" fill="#E4E4E4"/>
<path d="M156.158 177.506H106.153C105.721 177.506 105.306 177.716 105.001 178.088C104.695 178.461 104.523 178.966 104.523 179.492C104.523 180.019 104.695 180.524 105.001 180.897C105.306 181.269 105.721 181.479 106.153 181.479H156.158C156.59 181.479 157.004 181.269 157.31 180.897C157.616 180.524 157.787 180.019 157.787 179.492C157.787 178.966 157.616 178.461 157.31 178.088C157.004 177.716 156.59 177.506 156.158 177.506Z" fill="#E4E4E4"/>
<path d="M156.158 209.284H106.153C105.721 209.284 105.306 209.494 105.001 209.866C104.695 210.239 104.523 210.744 104.523 211.271C104.523 211.797 104.695 212.302 105.001 212.675C105.306 213.047 105.721 213.257 106.153 213.257H156.158C156.59 213.257 157.004 213.047 157.31 212.675C157.616 212.302 157.787 211.797 157.787 211.271C157.787 210.744 157.616 210.239 157.31 209.866C157.004 209.494 156.59 209.284 156.158 209.284Z" fill="#E4E4E4"/>
<path d="M156.156 142.55H106.155C105.722 142.55 105.307 142.76 105.001 143.132C104.695 143.504 104.523 144.01 104.523 144.536C104.523 145.063 104.695 145.568 105.001 145.941C105.307 146.313 105.722 146.523 106.155 146.523H156.156C156.589 146.523 157.004 146.313 157.31 145.941C157.616 145.568 157.787 145.063 157.787 144.536C157.787 144.01 157.616 143.504 157.31 143.132C157.004 142.76 156.589 142.55 156.156 142.55Z" fill="#E4E4E4"/>
<path d="M156.156 170.356H106.155C105.722 170.356 105.307 170.565 105.001 170.938C104.695 171.31 104.523 171.816 104.523 172.342C104.523 172.869 104.695 173.374 105.001 173.747C105.307 174.119 105.722 174.328 106.155 174.328H156.156C156.589 174.328 157.004 174.119 157.31 173.747C157.616 173.374 157.787 172.869 157.787 172.342C157.787 171.816 157.616 171.31 157.31 170.938C157.004 170.565 156.589 170.356 156.156 170.356Z" fill="#E4E4E4"/>
<path d="M156.156 201.34H106.155C105.722 201.34 105.307 201.549 105.001 201.922C104.695 202.294 104.523 202.799 104.523 203.326C104.523 203.853 104.695 204.358 105.001 204.73C105.307 205.103 105.722 205.312 106.155 205.312H156.156C156.589 205.312 157.004 205.103 157.31 204.73C157.616 204.358 157.787 203.853 157.787 203.326C157.787 202.799 157.616 202.294 157.31 201.922C157.004 201.549 156.589 201.34 156.156 201.34Z" fill="#E4E4E4"/>
<path d="M128.138 134.606H106.175C105.737 134.606 105.317 134.815 105.007 135.188C104.697 135.56 104.523 136.065 104.523 136.592C104.523 137.119 104.697 137.624 105.007 137.996C105.317 138.369 105.737 138.578 106.175 138.578H128.138C128.576 138.578 128.996 138.369 129.306 137.996C129.616 137.624 129.79 137.119 129.79 136.592C129.79 136.065 129.616 135.56 129.306 135.188C128.996 134.815 128.576 134.606 128.138 134.606Z" fill="#E4E4E4"/>
<path d="M128.138 162.412H106.175C105.737 162.412 105.317 162.621 105.007 162.993C104.697 163.366 104.523 163.871 104.523 164.398C104.523 164.925 104.697 165.43 105.007 165.802C105.317 166.175 105.737 166.384 106.175 166.384H128.138C128.576 166.384 128.996 166.175 129.306 165.802C129.616 165.43 129.79 164.925 129.79 164.398C129.79 163.871 129.616 163.366 129.306 162.993C128.996 162.621 128.576 162.412 128.138 162.412Z" fill="#E4E4E4"/>
<path d="M128.138 194.19H106.175C105.737 194.19 105.317 194.399 105.007 194.771C104.697 195.144 104.523 195.649 104.523 196.176C104.523 196.703 104.697 197.208 105.007 197.58C105.317 197.953 105.737 198.162 106.175 198.162H128.138C128.576 198.162 128.996 197.953 129.306 197.58C129.616 197.208 129.79 196.703 129.79 196.176C129.79 195.649 129.616 195.144 129.306 194.771C128.996 194.399 128.576 194.19 128.138 194.19Z" fill="#E4E4E4"/>
<path d="M156.156 119.511H106.155C105.722 119.511 105.307 119.679 105.001 119.977C104.695 120.275 104.523 120.679 104.523 121.1C104.523 121.522 104.695 121.926 105.001 122.224C105.307 122.522 105.722 122.689 106.155 122.689H156.156C156.589 122.689 157.004 122.522 157.31 122.224C157.616 121.926 157.787 121.522 157.787 121.1C157.787 120.679 157.616 120.275 157.31 119.977C157.004 119.679 156.589 119.511 156.156 119.511Z" fill="#E4E4E4"/>
<path d="M156.158 112.361H106.153C105.721 112.361 105.306 112.528 105.001 112.826C104.695 113.124 104.523 113.529 104.523 113.95C104.523 114.371 104.695 114.776 105.001 115.074C105.306 115.371 105.721 115.539 106.153 115.539H156.158C156.59 115.539 157.004 115.371 157.31 115.074C157.616 114.776 157.787 114.371 157.787 113.95C157.787 113.529 157.616 113.124 157.31 112.826C157.004 112.528 156.59 112.361 156.158 112.361Z" fill="#E4E4E4"/>
<path d="M128.137 104.417H106.176C105.738 104.417 105.318 104.626 105.008 104.998C104.698 105.371 104.523 105.876 104.523 106.403C104.523 106.93 104.698 107.435 105.008 107.807C105.318 108.18 105.738 108.389 106.176 108.389H128.137C128.575 108.389 128.996 108.18 129.306 107.807C129.616 107.435 129.79 106.93 129.79 106.403C129.79 105.876 129.616 105.371 129.306 104.998C128.996 104.626 128.575 104.417 128.137 104.417Z" fill="#E4E4E4"/>
<path d="M156.156 88.5276H106.155C105.722 88.5276 105.307 88.7368 105.001 89.1093C104.695 89.4818 104.523 89.987 104.523 90.5137C104.523 91.0405 104.695 91.5457 105.001 91.9181C105.307 92.2906 105.722 92.4998 106.155 92.4998H156.156C156.589 92.4998 157.004 92.2906 157.31 91.9181C157.616 91.5457 157.787 91.0405 157.787 90.5137C157.787 89.987 157.616 89.4818 157.31 89.1093C157.004 88.7368 156.589 88.5276 156.156 88.5276Z" fill="#0A4E74"/>
<path d="M156.156 81.3774H106.155C105.722 81.3774 105.307 81.5448 105.001 81.8428C104.695 82.1408 104.523 82.5449 104.523 82.9663C104.523 83.3877 104.695 83.7919 105.001 84.0899C105.307 84.3878 105.722 84.5553 106.155 84.5553H156.156C156.589 84.5553 157.004 84.3878 157.31 84.0899C157.616 83.7919 157.787 83.3877 157.787 82.9663C157.787 82.5449 157.616 82.1408 157.31 81.8428C157.004 81.5448 156.589 81.3774 156.156 81.3774Z" fill="#0A4E74"/>
<path d="M128.137 73.4331H106.176C105.738 73.4331 105.318 73.6424 105.008 74.0148C104.698 74.3873 104.523 74.8925 104.523 75.4192C104.523 75.946 104.698 76.4512 105.008 76.8236C105.318 77.1961 105.738 77.4054 106.176 77.4054H128.137C128.575 77.4054 128.996 77.1961 129.306 76.8236C129.616 76.4512 129.79 75.946 129.79 75.4192C129.79 74.8925 129.616 74.3873 129.306 74.0148C128.996 73.6424 128.575 73.4331 128.137 73.4331Z" fill="#0A4E74"/>
<path d="M297.046 111.608L282.131 89.4519L267.278 101.083L281.307 111.963L284.189 146.723C283.3 147.658 282.704 148.83 282.472 150.097C282.24 151.363 282.383 152.67 282.884 153.857C283.384 155.044 284.221 156.06 285.291 156.782C286.361 157.503 287.619 157.899 288.911 157.92C290.203 157.942 291.474 157.589 292.568 156.903C293.662 156.218 294.532 155.23 295.072 154.061C295.612 152.891 295.799 151.59 295.61 150.316C295.422 149.043 294.865 147.851 294.008 146.888L297.046 111.608Z" fill="#FFB6B6"/>
<path d="M261.536 69.03C269.427 67.5593 285.071 91.858 285.071 91.858C283.212 91.8976 297.555 106.295 296.028 106.99C291.687 108.968 281.339 110.512 279.734 113.181C278.817 114.707 269.67 104.318 269.67 104.318C269.67 104.318 263.953 98.8986 256.737 91.7813C254.659 89.8069 253.117 87.3408 252.253 84.6126C251.389 81.8844 251.233 78.9829 251.797 76.1781C251.797 76.1781 253.646 70.5007 261.536 69.03Z" fill="#0A4E74"/>
<path d="M269.018 265.628L269.572 253.215C275.348 250.139 281.79 248.514 288.339 248.482C279.326 255.824 280.452 269.978 274.341 279.852C272.411 282.917 269.814 285.511 266.742 287.44C263.669 289.369 260.201 290.584 256.593 290.996L249.05 295.597C248.015 289.848 248.243 283.944 249.719 278.291C251.194 272.638 253.882 267.371 257.598 262.853C259.707 260.339 262.126 258.1 264.797 256.188C266.604 260.935 269.018 265.628 269.018 265.628Z" fill="#E6E1FF"/>
<path d="M249.582 289.209L242.752 289.209L239.502 262.96L249.583 262.961L249.582 289.209Z" fill="#FFB6B6"/>
<path d="M251.324 295.806L229.301 295.805V295.528C229.301 293.262 230.204 291.09 231.812 289.489C233.419 287.887 235.599 286.987 237.873 286.987H237.873L241.896 283.946L249.402 286.987L251.325 286.987L251.324 295.806Z" fill="#2F2E41"/>
<path d="M217.85 289.209L211.02 289.209L207.771 262.96L217.851 262.961L217.85 289.209Z" fill="#FFB6B6"/>
<path d="M219.592 295.806L197.568 295.805V295.528C197.569 293.262 198.472 291.09 200.079 289.489C201.687 287.887 203.867 286.987 206.141 286.987H206.141L210.164 283.946L217.67 286.987L219.592 286.987L219.592 295.806Z" fill="#2F2E41"/>
<path d="M214.894 145.705L259.32 146.811C267.758 151.377 267.886 161.26 265.122 172.994C265.122 172.994 266.055 179.968 264.188 181.828C262.322 183.687 261.388 183.687 262.322 186.942C263.255 190.197 258.324 195.512 258.923 196.109C259.522 196.706 260.922 199.96 260.922 199.96L256.255 226.462C256.255 226.462 252.989 272.491 252.055 273.421C251.122 274.351 250.189 273.421 251.122 275.746C252.055 278.071 252.989 277.141 252.055 278.071C251.229 278.959 250.45 279.89 249.722 280.86H238.44C238.44 280.86 237.589 276.211 237.589 275.746C237.589 275.281 236.656 272.491 236.656 272.026C236.656 271.561 237.481 270.74 237.481 270.74C237.766 269.794 237.959 268.824 238.056 267.842C238.056 266.912 240.856 231.111 240.856 231.111L235.256 184.617L221.723 230.182C221.723 230.182 221.723 270.167 220.79 271.096C219.857 272.026 219.857 271.561 220.324 273.421C220.79 275.281 222.657 274.816 221.257 276.211C219.857 277.606 219.39 275.281 219.857 277.606L220.324 279.93L206.324 280.13C206.324 280.13 204.457 276.211 205.391 274.816C206.324 273.421 206.268 273.802 205.129 271.519C203.991 269.237 203.524 268.772 203.991 268.307C204.457 267.842 204.457 265.369 204.457 265.369L206.791 220.883C206.791 220.883 207.257 173.924 207.257 172.529C207.293 171.811 207.16 171.095 206.87 170.437V168.544L208.657 161.835L214.894 145.705Z" fill="#69687F"/>
<path d="M241.581 53.6637C249.205 53.6637 255.385 47.5061 255.385 39.9104C255.385 32.3148 249.205 26.1572 241.581 26.1572C233.958 26.1572 227.778 32.3148 227.778 39.9104C227.778 47.5061 233.958 53.6637 241.581 53.6637Z" fill="#FFB6B6"/>
<path d="M234.68 62.7538C231.706 64.5153 229.927 67.7518 228.906 71.0452C227.015 77.1426 225.877 83.4467 225.517 89.8183L224.438 108.894L211.08 149.511C222.657 159.271 266.174 151.729 266.174 151.729C266.174 151.729 267.51 151.285 266.174 149.954C264.839 148.623 263.538 149.802 264.874 148.472C266.21 147.141 265.289 148.623 264.844 147.292C264.398 145.961 264.844 146.849 265.289 146.405C265.734 145.961 261.842 141.968 261.842 141.968L265.404 118.654L269.857 71.6268C264.514 64.972 253.767 61.0491 253.767 61.0491L250.991 56.0693L237.107 57.1759L234.68 62.7538Z" fill="#0A4E74"/>
<path d="M232.786 31.8392C233.32 31.8433 233.852 31.9128 234.369 32.0461C235.388 32.2903 236.424 32.4632 237.467 32.5637C240.663 32.8633 243.666 34.2211 245.996 36.4204C248.326 38.6196 249.849 41.5335 250.322 44.6965C251.124 43.9997 252.949 42.718 254.445 43.9092C254.468 43.9281 254.481 43.9378 254.534 43.913C255.528 43.4434 257.291 37.6634 257.345 32.5743C257.373 29.8731 256.946 26.4239 254.753 25.3316L254.638 25.2741L254.608 25.149C254.461 24.5414 252.824 23.5042 249.98 22.6969C244.811 21.2299 237.105 18.3721 232.766 22.5778C232.437 23.9957 231.369 27.0299 230.29 27.3738C229.095 27.7545 228.063 28.083 227.9 29.5435C227.764 31.622 227.774 33.7073 227.93 35.7844C228.335 34.5134 229.13 33.401 230.202 32.6037C230.965 32.0921 231.867 31.8253 232.786 31.8392Z" fill="#2F2E41"/>
<path d="M207.094 107.832L229.642 93.4437L218.285 78.4019L207.071 92.146L172.13 94.2812C171.211 93.376 170.048 92.7569 168.781 92.4992C167.515 92.2415 166.201 92.3564 165 92.8299C163.798 93.3034 162.761 94.1151 162.014 95.1659C161.267 96.2167 160.843 97.4613 160.794 98.7479C160.745 100.034 161.073 101.307 161.738 102.412C162.402 103.516 163.375 104.404 164.537 104.967C165.699 105.53 167.001 105.743 168.283 105.582C169.565 105.421 170.772 104.892 171.757 104.058L207.094 107.832Z" fill="#FFB6B6"/>
<path d="M250.57 73.3613C251.879 81.2524 227.165 96.321 227.165 96.321C227.165 94.4688 212.414 108.451 211.749 106.915C209.856 102.55 208.526 92.209 205.882 90.554C204.37 89.6074 214.989 80.7157 214.989 80.7157C214.989 80.7157 220.548 75.1363 227.842 68.0987C229.867 66.0709 232.375 64.5866 235.13 63.784C237.886 62.9814 240.801 62.8866 243.604 63.5083C243.604 63.5083 249.261 65.4703 250.57 73.3613Z" fill="#0A4E74"/>
<path d="M300.856 295.915C300.856 296.002 300.839 296.088 300.806 296.168C300.773 296.248 300.724 296.32 300.663 296.382C300.601 296.443 300.529 296.491 300.448 296.524C300.368 296.557 300.282 296.574 300.195 296.574H144.54C144.365 296.574 144.197 296.505 144.073 296.381C143.949 296.258 143.879 296.09 143.879 295.915C143.879 295.741 143.949 295.573 144.073 295.45C144.197 295.326 144.365 295.257 144.54 295.257H300.195C300.282 295.257 300.368 295.274 300.448 295.307C300.529 295.34 300.601 295.388 300.663 295.449C300.724 295.51 300.773 295.583 300.806 295.663C300.839 295.743 300.856 295.829 300.856 295.915Z" fill="#0A4E74"/>
<circle cx="70.3989" cy="26.5717" r="26.0161" fill="#02486D"/>
<path d="M78.4521 33.4081L81.8191 36.7733C81.9761 36.9359 82.063 37.1537 82.0611 37.3797C82.0591 37.6057 81.9684 37.8219 81.8086 37.9817C81.6488 38.1415 81.4326 38.2322 81.2066 38.2342C80.9806 38.2361 80.7628 38.1492 80.6002 37.9922L77.2333 34.6252C75.033 36.5103 72.1882 37.47 69.2957 37.3028C66.4031 37.1356 63.6878 35.8545 61.7194 33.7285C59.751 31.6024 58.6826 28.7966 58.7384 25.8998C58.7942 23.003 59.9698 20.2403 62.0185 18.1916C64.0672 16.1429 66.8299 14.9673 69.7267 14.9115C72.6235 14.8557 75.4293 15.9241 77.5554 17.8925C79.6814 19.8609 80.9625 22.5762 81.1297 25.4687C81.2969 28.3613 80.3372 31.2061 78.4521 33.4064V33.4081ZM69.9425 35.5976C72.4573 35.5976 74.869 34.5986 76.6473 32.8204C78.4255 31.0421 79.4245 28.6304 79.4245 26.1156C79.4245 23.6008 78.4255 21.189 76.6473 19.4108C74.869 17.6326 72.4573 16.6336 69.9425 16.6336C67.4277 16.6336 65.0159 17.6326 63.2377 19.4108C61.4595 21.189 60.4605 23.6008 60.4605 26.1156C60.4605 28.6304 61.4595 31.0421 63.2377 32.8204C65.0159 34.5986 67.4277 35.5976 69.9425 35.5976Z" fill="white"/>
</svg>
