<svg width="71" height="61" viewBox="0 0 71 61" fill="none" xmlns="http://www.w3.org/2000/svg">
<path d="M66.0938 0.601562H4.90625C3.61539 0.601563 2.3774 1.11435 1.46463 2.02713C0.551854 2.9399 0.0390625 4.17789 0.0390625 5.46875V55.5312C0.0390625 56.8221 0.551854 58.0601 1.46463 58.9729C2.3774 59.8856 3.61539 60.3984 4.90625 60.3984H66.0938C67.3846 60.3984 68.6226 59.8856 69.5354 58.9729C70.4481 58.0601 70.9609 56.8221 70.9609 55.5312V5.46875C70.9609 4.17789 70.4481 2.9399 69.5354 2.02713C68.6226 1.11435 67.3846 0.601563 66.0938 0.601562ZM4.90625 4.77344H66.0938C66.2782 4.77344 66.455 4.84669 66.5854 4.97709C66.7158 5.10749 66.7891 5.28434 66.7891 5.46875V42.8661L56.5436 32.6207C56.0917 32.1687 55.5551 31.8101 54.9645 31.5655C54.374 31.3209 53.741 31.195 53.1018 31.195C52.4626 31.195 51.8297 31.3209 51.2391 31.5655C50.6486 31.8101 50.112 32.1687 49.66 32.6207L42.2132 40.0675L26.4262 24.277C25.9742 23.8249 25.4376 23.4664 24.8471 23.2218C24.2565 22.9771 23.6236 22.8512 22.9844 22.8512C22.3452 22.8512 21.7122 22.9771 21.1217 23.2218C20.5311 23.4664 19.9945 23.8249 19.5426 24.277L4.21094 39.6086V5.46875C4.21094 5.28434 4.28419 5.10749 4.41459 4.97709C4.54499 4.84669 4.72184 4.77344 4.90625 4.77344ZM4.21094 55.5312V45.5083L22.4907 27.2286C22.5553 27.1634 22.6322 27.1117 22.717 27.0764C22.8017 27.0411 22.8926 27.0229 22.9844 27.0229C23.0762 27.0229 23.167 27.0411 23.2518 27.0764C23.3365 27.1117 23.4134 27.1634 23.478 27.2286L52.4761 56.2266H4.90625C4.72184 56.2266 4.54499 56.1533 4.41459 56.0229C4.28419 55.8925 4.21094 55.7157 4.21094 55.5312ZM66.0938 56.2266H58.3758L45.1648 43.0156L52.6082 35.5688C52.6727 35.5042 52.7494 35.4529 52.8338 35.4179C52.9182 35.3829 53.0087 35.3649 53.1001 35.3649C53.1915 35.3649 53.282 35.3829 53.3664 35.4179C53.4508 35.4529 53.5275 35.5042 53.592 35.5688L66.803 48.7798V55.5312C66.803 55.6237 66.7846 55.7153 66.7487 55.8006C66.7129 55.8859 66.6605 55.9631 66.5944 56.0279C66.5284 56.0926 66.4501 56.1436 66.3641 56.1777C66.2781 56.2118 66.1862 56.2284 66.0938 56.2266ZM41.7578 20.7656C41.7578 20.078 41.9617 19.4059 42.3437 18.8342C42.7257 18.2624 43.2687 17.8168 43.904 17.5537C44.5392 17.2906 45.2382 17.2217 45.9126 17.3559C46.587 17.49 47.2065 17.8211 47.6927 18.3073C48.1789 18.7935 48.51 19.413 48.6441 20.0874C48.7783 20.7618 48.7094 21.4608 48.4463 22.096C48.1832 22.7313 47.7376 23.2743 47.1659 23.6563C46.5941 24.0383 45.922 24.2422 45.2344 24.2422C44.3123 24.2422 43.4281 23.8759 42.7761 23.2239C42.1241 22.5719 41.7578 21.6877 41.7578 20.7656Z" fill="black" fill-opacity="0.2"/>
</svg>
