<svg width="28" height="28" viewBox="0 0 28 28" fill="none" xmlns="http://www.w3.org/2000/svg">
<path d="M14 1.75C10.7633 1.78927 7.67023 3.0925 5.38137 5.38137C3.0925 7.67023 1.78927 10.7633 1.75 14C1.78927 17.2367 3.0925 20.3298 5.38137 22.6186C7.67023 24.9075 10.7633 26.2107 14 26.25C17.2367 26.2107 20.3298 24.9075 22.6186 22.6186C24.9075 20.3298 26.2107 17.2367 26.25 14C26.2107 10.7633 24.9075 7.67023 22.6186 5.38137C20.3298 3.0925 17.2367 1.78927 14 1.75ZM21 14.875H14.875V21H13.125V14.875H7V13.125H13.125V7H14.875V13.125H21V14.875Z" fill="#151515"/>
</svg>
